<svg xmlns="http://www.w3.org/2000/svg" xmlns:xlink="http://www.w3.org/1999/xlink" width="500" zoomAndPan="magnify" viewBox="0 0 375 374.999991" height="500" preserveAspectRatio="xMidYMid meet" version="1.2"><g id="a24028c19d"><path style=" stroke:none;fill-rule:nonzero;fill:#2a424d;fill-opacity:1;" d="M 79.066406 251.78125 C 88.410156 245.941406 97.332031 239.410156 105.667969 232.136719 C 125.527344 220.136719 163.8125 202.347656 197.742188 217.535156 C 212.289062 224.066406 218.503906 237.019531 221.105469 246.738281 C 226.574219 266.96875 221.476562 289.21875 213.832031 299.890625 C 212.820312 301.324219 213.140625 303.289062 214.574219 304.351562 C 216.007812 305.410156 217.972656 305.039062 219.035156 303.605469 C 229.121094 289.429688 232.574219 264.792969 227.265625 245.09375 C 222.964844 229.269531 213.671875 217.746094 200.34375 211.746094 C 173.527344 199.691406 144.644531 206.542969 122.871094 216.046875 C 127.8125 211.054688 132.855469 205.535156 138.164062 199.480469 C 152.34375 183.074219 160.625 162.257812 168.644531 142.1875 C 181.546875 109.585938 193.8125 78.839844 229.441406 72.148438 C 230.183594 72.042969 247.28125 69.546875 260.1875 78.945312 C 267.511719 84.308594 272.238281 92.539062 274.152344 103.476562 C 269.742188 104.378906 265.335938 107.671875 261.089844 110.859375 C 260.292969 111.441406 259.496094 112.027344 258.753906 112.609375 C 257.742188 113.355469 257.265625 114.628906 257.53125 115.851562 L 260.929688 132.046875 C 258.488281 136.238281 254.132812 145.371094 253.335938 158.277344 C 252.539062 171.710938 256.523438 186.683594 261.195312 203.992188 C 269.425781 234.527344 278.71875 269.09375 264.644531 307.429688 C 264.007812 309.074219 264.859375 310.933594 266.503906 311.519531 C 268.152344 312.15625 270.007812 311.304688 270.59375 309.660156 C 285.40625 269.410156 275.371094 232.242188 267.355469 202.402344 C 262.839844 185.621094 258.910156 171.125 259.707031 158.699219 C 260.398438 147.816406 263.847656 140.011719 266.027344 136.027344 C 273.246094 136.824219 292.097656 138.46875 298.417969 135.921875 L 298.46875 135.921875 C 298.523438 135.921875 298.523438 135.921875 298.574219 135.867188 C 300.167969 135.230469 300.914062 133.425781 300.328125 131.832031 C 300.0625 131.140625 294.0625 115.210938 280.894531 104.59375 C 280.894531 104.433594 280.894531 104.222656 280.839844 104.0625 C 278.824219 90.574219 273.140625 80.378906 264.007812 73.742188 C 248.664062 62.59375 229.28125 65.671875 228.484375 65.832031 L 228.433594 65.832031 C 210.804688 69.125 196.785156 78.097656 185.742188 93.230469 C 176.023438 106.503906 169.546875 122.699219 162.75 139.796875 C 154.945312 159.390625 146.875 179.675781 133.386719 195.285156 C 109.808594 222.578125 89.472656 237.976562 75.828125 246.367188 C 74.339844 247.269531 73.863281 249.234375 74.765625 250.773438 C 75.613281 252.261719 77.578125 252.738281 79.066406 251.78125 Z M 266.929688 129.761719 L 265.070312 120.949219 L 285.726562 130.984375 C 279.9375 130.875 272.824219 130.398438 266.929688 129.761719 Z M 266.929688 129.761719 "/><path style=" stroke:none;fill-rule:nonzero;fill:#2a424d;fill-opacity:1;" d="M 238.574219 111.175781 C 244.148438 111.175781 248.664062 106.664062 248.664062 101.089844 C 248.664062 95.511719 244.148438 91 238.574219 91 C 233 91 228.484375 95.511719 228.484375 101.089844 C 228.539062 106.664062 233 111.125 238.574219 111.175781 Z M 238.574219 111.175781 "/><path style=" stroke:none;fill-rule:nonzero;fill:#2a424d;fill-opacity:1;" d="M 216.273438 83.089844 C 208.46875 86.910156 201.832031 92.699219 195.882812 100.769531 C 187.121094 112.769531 180.960938 128.167969 174.429688 144.523438 C 173.792969 146.167969 174.589844 148.027344 176.238281 148.664062 C 177.882812 149.300781 179.742188 148.503906 180.378906 146.859375 C 186.75 130.929688 192.75 115.851562 201.035156 104.539062 C 206.289062 97.320312 212.238281 92.167969 219.085938 88.824219 C 220.679688 88.027344 221.316406 86.113281 220.519531 84.574219 C 219.722656 82.980469 217.867188 82.34375 216.273438 83.089844 Z M 216.273438 83.089844 "/><path style=" stroke:none;fill-rule:nonzero;fill:#2a424d;fill-opacity:1;" d="M 234.378906 80.964844 C 234.0625 79.210938 232.414062 78.097656 230.664062 78.414062 C 229.546875 78.628906 228.484375 78.839844 227.421875 79.105469 C 225.726562 79.53125 224.664062 81.230469 225.085938 82.929688 C 225.511719 84.628906 227.210938 85.691406 228.910156 85.265625 C 229.867188 85.054688 230.875 84.839844 231.832031 84.628906 C 233.582031 84.363281 234.699219 82.714844 234.378906 80.964844 Z M 234.378906 80.964844 "/></g></svg>