<svg xmlns="http://www.w3.org/2000/svg" xmlns:xlink="http://www.w3.org/1999/xlink" width="500" zoomAndPan="magnify" viewBox="0 0 375 374.999991" height="500" preserveAspectRatio="xMidYMid meet" version="1.2"><g id="f7159496a4"><path style=" stroke:none;fill-rule:evenodd;fill:#2a424d;fill-opacity:1;" d="M 180.28125 87.859375 L 157.273438 87.859375 C 161.179688 83.496094 166.855469 80.75 173.171875 80.75 C 179.488281 80.75 185.164062 83.496094 189.066406 87.859375 Z M 173.171875 66.53125 C 187.746094 66.53125 200.273438 75.304688 205.757812 87.859375 L 222.9375 87.859375 L 222.9375 102.078125 L 215.828125 102.078125 L 215.828125 144.734375 L 194.5 144.734375 C 188.007812 144.734375 182.195312 141.832031 178.28125 137.257812 C 176.613281 137.5 174.90625 137.625 173.171875 137.625 C 153.539062 137.625 137.625 121.707031 137.625 102.078125 C 137.625 82.445312 153.539062 66.53125 173.171875 66.53125 Z M 187.390625 102.078125 L 201.609375 102.078125 L 201.609375 130.515625 L 194.5 130.515625 C 190.570312 130.515625 187.390625 127.332031 187.390625 123.40625 Z M 52.3125 173.171875 C 52.3125 157.464844 65.042969 144.734375 80.75 144.734375 L 73.640625 144.734375 C 69.710938 144.734375 66.53125 141.550781 66.53125 137.625 C 66.53125 133.695312 69.710938 130.515625 73.640625 130.515625 L 102.078125 130.515625 C 106.003906 130.515625 109.1875 133.695312 109.1875 137.625 C 109.1875 141.550781 106.003906 144.734375 102.078125 144.734375 L 94.96875 144.734375 C 102.40625 144.734375 109.179688 147.589844 114.246094 152.265625 C 118.160156 147.65625 123.996094 144.734375 130.515625 144.734375 L 173.171875 144.734375 C 188.875 144.734375 201.609375 157.464844 201.609375 173.171875 L 201.609375 219.796875 L 221.109375 226.296875 L 262.78125 209.039062 L 265.351562 215.238281 L 276.113281 204.441406 L 303.742188 176.738281 L 313.808594 186.777344 L 298.277344 202.355469 L 320.25 202.355469 L 320.25 216.574219 L 265.902344 216.574219 L 268.222656 222.171875 L 239.824219 233.9375 C 243.707031 237.617188 245.339844 243.347656 243.535156 248.761719 C 241.199219 255.761719 233.949219 259.738281 226.898438 258.132812 C 217.949219 287.15625 190.914062 308.25 158.953125 308.25 C 122.085938 308.25 91.777344 280.191406 88.210938 244.265625 L 80.75 244.265625 C 65.042969 244.265625 52.3125 231.53125 52.3125 215.828125 Z M 201.105469 249.605469 L 213.382812 253.699219 C 206.296875 277.039062 184.609375 294.03125 158.953125 294.03125 C 129.609375 294.03125 105.457031 271.8125 102.402344 243.28125 C 114.503906 240.011719 123.40625 228.960938 123.40625 215.828125 L 123.40625 166.0625 C 123.40625 162.132812 126.585938 158.953125 130.515625 158.953125 L 130.515625 244.265625 C 130.515625 259.96875 143.246094 272.703125 158.953125 272.703125 L 173.171875 272.703125 C 187.050781 272.703125 198.605469 262.757812 201.105469 249.605469 Z M 144.734375 158.953125 L 144.734375 244.265625 C 144.734375 252.117188 151.097656 258.484375 158.953125 258.484375 L 173.171875 258.484375 C 180.765625 258.484375 186.972656 252.523438 187.371094 245.027344 L 161.5625 236.425781 C 155.757812 234.488281 151.84375 229.054688 151.84375 222.9375 L 151.84375 180.28125 C 151.84375 172.425781 158.207031 166.0625 166.0625 166.0625 C 173.914062 166.0625 180.28125 172.425781 180.28125 180.28125 L 180.28125 212.6875 L 187.390625 215.058594 L 187.390625 173.171875 C 187.390625 165.316406 181.023438 158.953125 173.171875 158.953125 Z M 87.859375 177.335938 L 97.050781 168.144531 L 107.105469 178.199219 L 97.910156 187.390625 L 107.105469 196.582031 L 97.050781 206.636719 L 87.859375 197.441406 L 78.667969 206.636719 L 68.613281 196.582031 L 77.804688 187.390625 L 68.613281 178.199219 L 78.667969 168.144531 Z M 87.859375 177.335938 "/></g></svg>