<svg xmlns="http://www.w3.org/2000/svg" xmlns:xlink="http://www.w3.org/1999/xlink" width="500" zoomAndPan="magnify" viewBox="0 0 375 374.999991" height="500" preserveAspectRatio="xMidYMid meet" version="1.2"><defs><clipPath id="6c8c865979"><path d="M 118 99 L 321 99 L 321 300.320312 L 118 300.320312 Z M 118 99 "/></clipPath><clipPath id="a249c5313a"><path d="M 209 52.070312 L 274 52.070312 L 274 114 L 209 114 Z M 209 52.070312 "/></clipPath><clipPath id="fb9c6f8d3b"><path d="M 52.226562 163 L 137 163 L 137 239 L 52.226562 239 Z M 52.226562 163 "/></clipPath></defs><g id="732a629387"><g clip-rule="nonzero" clip-path="url(#6c8c865979)"><path style=" stroke:none;fill-rule:nonzero;fill:#2a424d;fill-opacity:1;" d="M 317.757812 155.402344 C 317.757812 155.402344 304.734375 129.570312 295.285156 110.878906 C 292.554688 105.628906 287.933594 101.636719 282.261719 100.167969 C 276.59375 98.488281 270.5 99.535156 265.460938 102.476562 L 251.179688 111.296875 C 245.929688 113.816406 241.9375 118.648438 240.257812 124.109375 L 224.296875 152.464844 C 224.296875 152.464844 224.085938 152.671875 224.085938 152.671875 L 199.511719 167.792969 C 197.621094 169.054688 196.363281 170.734375 195.730469 172.835938 C 189.851562 172.835938 183.972656 172.835938 178.300781 173.046875 C 177.25 173.046875 175.359375 173.253906 173.679688 174.304688 C 171.789062 175.566406 171.160156 177.246094 170.527344 178.507812 C 166.957031 186.695312 165.070312 188.585938 164.019531 188.585938 L 144.066406 188.585938 C 141.753906 188.585938 139.867188 190.476562 139.867188 192.789062 L 139.867188 196.988281 L 127.265625 196.988281 C 127.265625 194.679688 125.375 192.789062 123.0625 192.789062 C 120.753906 192.789062 118.863281 194.679688 118.863281 196.988281 L 118.863281 205.390625 C 118.863281 207.699219 120.753906 209.589844 123.0625 209.589844 C 125.375 209.589844 127.265625 207.699219 127.265625 205.390625 L 139.867188 205.390625 L 139.867188 209.589844 C 139.867188 211.898438 141.753906 213.789062 144.066406 213.789062 L 173.46875 213.789062 L 173.46875 222.191406 C 167.800781 222.402344 162.757812 226.601562 161.707031 232.273438 L 158.769531 246.554688 C 158.558594 247.8125 158.769531 249.074219 159.609375 250.125 C 160.449219 251.175781 161.5 251.59375 162.757812 251.59375 L 204.761719 251.59375 C 206.023438 251.59375 207.285156 250.964844 207.914062 250.125 C 208.542969 249.285156 208.964844 247.8125 208.753906 246.554688 L 205.8125 232.273438 C 204.761719 226.601562 199.722656 222.402344 194.050781 222.191406 L 194.050781 213.789062 L 202.453125 213.789062 C 204.761719 213.789062 206.652344 211.898438 206.652344 209.589844 L 206.652344 205.808594 C 209.804688 205.597656 212.324219 206.019531 214.214844 207.28125 C 217.785156 209.378906 219.675781 214.421875 219.886719 221.980469 C 219.886719 223.871094 219.886719 225.972656 220.09375 227.863281 C 220.09375 233.953125 220.09375 240.042969 221.984375 246.132812 C 224.296875 254.535156 231.226562 263.777344 241.097656 264.828125 C 241.308594 264.828125 241.519531 264.828125 241.519531 264.828125 C 241.726562 264.828125 241.9375 264.828125 242.148438 264.828125 L 242.988281 275.328125 C 242.988281 276.167969 243.40625 277.21875 243.617188 278.058594 C 238.578125 281.417969 235.21875 287.300781 235.21875 294.019531 L 235.21875 295.910156 C 235.21875 298.21875 237.105469 300.109375 239.417969 300.109375 L 268.820312 300.109375 C 271.132812 300.109375 273.023438 298.21875 273.023438 295.910156 L 273.023438 279.109375 C 273.023438 278.476562 272.8125 277.847656 272.601562 277.429688 C 272.8125 276.796875 273.023438 276.167969 273.023438 275.539062 L 275.960938 233.113281 L 282.894531 225.339844 L 285.203125 275.328125 C 285.203125 275.957031 285.414062 276.589844 285.414062 277.21875 C 279.324219 280.367188 275.121094 286.878906 275.121094 294.230469 L 275.121094 296.121094 C 275.121094 298.429688 277.011719 300.320312 279.324219 300.320312 L 308.726562 300.320312 C 311.035156 300.320312 312.925781 298.429688 312.925781 296.121094 L 312.925781 279.316406 C 312.925781 278.269531 312.507812 277.429688 311.875 276.589844 C 311.875 276.167969 312.085938 275.746094 312.085938 275.328125 L 316.078125 186.90625 C 316.078125 186.90625 316.078125 186.695312 316.078125 186.695312 C 321.746094 177.035156 322.378906 165.484375 317.757812 155.402344 Z M 186.070312 222.191406 L 181.871094 222.191406 L 181.871094 213.789062 L 186.070312 213.789062 Z M 198.042969 233.953125 L 199.933594 243.195312 L 168.21875 243.195312 L 170.109375 233.953125 C 170.527344 232.0625 172.210938 230.59375 174.308594 230.59375 L 194.050781 230.59375 C 195.941406 230.59375 197.621094 232.0625 198.042969 233.953125 Z M 178.511719 181.65625 C 178.511719 181.65625 178.511719 181.445312 178.71875 181.445312 C 178.71875 181.445312 178.929688 181.445312 178.929688 181.445312 C 185.230469 181.238281 191.53125 181.238281 197.832031 181.238281 C 198.042969 181.238281 198.042969 181.238281 198.042969 181.238281 L 200.984375 186.488281 C 201.402344 187.328125 202.03125 187.957031 202.875 188.585938 L 175.148438 188.585938 C 176.410156 186.277344 177.460938 183.757812 178.511719 181.65625 Z M 198.671875 205.390625 L 148.265625 205.390625 L 148.265625 196.988281 L 198.671875 196.988281 Z M 230.386719 244.035156 C 228.917969 238.992188 228.917969 233.53125 228.917969 227.863281 C 228.917969 225.761719 228.917969 223.660156 228.707031 221.769531 C 228.285156 211.058594 225.136719 203.917969 219.046875 200.140625 C 215.894531 198.25 211.902344 197.199219 207.074219 197.410156 L 207.074219 192.789062 C 207.074219 191.949219 206.863281 191.109375 206.234375 190.476562 C 208.332031 190.898438 210.644531 190.6875 212.535156 189.425781 L 225.976562 181.238281 L 222.617188 189.007812 C 220.726562 193.207031 222.617188 198.039062 226.605469 199.929688 L 234.167969 203.5 C 235.425781 204.128906 236.476562 204.339844 237.738281 204.339844 C 238.789062 204.339844 239.628906 204.128906 240.675781 203.917969 C 242.777344 203.078125 244.457031 201.609375 245.507812 199.507812 L 257.269531 173.464844 L 262.941406 185.226562 L 241.726562 215.261719 C 240.046875 217.570312 239.207031 220.511719 239.417969 223.453125 L 241.726562 256.636719 C 236.058594 255.585938 231.855469 249.496094 230.386719 244.035156 Z M 238.789062 173.464844 L 241.097656 171.996094 C 242.359375 171.15625 243.617188 170.105469 244.25 168.636719 L 249.917969 157.921875 L 252.648438 163.382812 C 252.4375 164.015625 252.019531 164.644531 251.808594 165.484375 L 238.15625 195.9375 L 230.597656 192.367188 Z M 264.832031 291.5 L 244.039062 291.5 C 245.089844 286.667969 249.5 283.097656 254.539062 283.097656 L 264.832031 283.097656 Z M 269.871094 227.441406 C 268.609375 228.914062 267.980469 230.59375 267.769531 232.484375 L 264.832031 274.90625 L 254.539062 274.90625 C 254.539062 274.90625 254.328125 274.90625 254.328125 274.90625 L 251.597656 274.90625 L 247.820312 223.03125 C 247.820312 221.980469 248.027344 221.140625 248.660156 220.300781 L 269.871094 190.058594 C 271.550781 187.539062 271.972656 184.386719 270.5 181.65625 L 253.910156 146.582031 C 253.277344 145.113281 251.808594 144.273438 250.128906 144.273438 C 248.660156 144.273438 247.1875 145.113281 246.347656 146.582031 L 236.898438 164.644531 L 208.332031 182.285156 L 204.132812 174.9375 L 228.496094 159.8125 C 229.964844 158.972656 231.015625 157.921875 231.648438 156.453125 L 247.609375 127.890625 C 247.820312 127.679688 247.820312 127.261719 248.027344 126.839844 C 248.867188 123.269531 251.390625 120.328125 254.75 118.648438 C 254.960938 118.648438 254.960938 118.4375 255.167969 118.4375 L 269.660156 109.40625 C 272.8125 107.515625 276.382812 106.886719 279.742188 107.9375 C 283.101562 108.988281 286.042969 111.296875 287.511719 114.449219 C 296.753906 132.929688 309.984375 158.765625 309.984375 158.765625 C 314.1875 167.792969 312.714844 178.714844 305.996094 186.277344 Z M 293.8125 274.699219 L 291.082031 216.101562 L 307.464844 197.617188 L 304.105469 274.699219 Z M 304.945312 291.5 L 284.152344 291.5 C 285.203125 286.667969 289.613281 283.097656 294.652344 283.097656 L 304.945312 283.097656 Z M 304.945312 291.5 "/></g><g clip-rule="nonzero" clip-path="url(#a249c5313a)"><path style=" stroke:none;fill-rule:nonzero;fill:#2a424d;fill-opacity:1;" d="M 273.023438 79.375 C 273.023438 64.253906 260.839844 52.070312 245.71875 52.070312 C 230.597656 52.070312 218.414062 64.253906 218.414062 79.375 C 218.414062 82.105469 218.835938 84.835938 219.675781 87.355469 L 211.484375 92.605469 C 209.59375 93.867188 208.964844 96.386719 210.222656 98.488281 C 210.855469 99.535156 211.695312 100.167969 212.746094 100.375 C 219.046875 108.777344 228.707031 113.398438 238.789062 113.398438 C 244.667969 113.398438 250.339844 111.929688 255.800781 108.566406 C 256.847656 107.9375 257.480469 107.097656 257.691406 106.046875 C 257.898438 105.417969 257.898438 104.789062 257.691406 104.15625 C 266.511719 99.535156 273.023438 90.296875 273.023438 79.375 Z M 226.605469 79.375 C 226.605469 68.871094 235.007812 60.472656 245.507812 60.472656 C 249.5 60.472656 253.277344 61.730469 256.21875 63.832031 L 226.816406 82.523438 C 226.816406 81.472656 226.605469 80.425781 226.605469 79.375 Z M 220.726562 97.015625 L 237.105469 86.933594 L 247.1875 103.316406 C 237.949219 106.886719 227.445312 104.367188 220.726562 97.015625 Z M 253.070312 96.597656 L 243.828125 81.683594 L 261.679688 70.132812 C 261.890625 70.132812 261.890625 69.921875 262.101562 69.921875 C 263.570312 72.652344 264.621094 75.804688 264.621094 79.164062 C 264.621094 87.144531 259.789062 93.867188 253.070312 96.597656 Z M 253.070312 96.597656 "/></g><g clip-rule="nonzero" clip-path="url(#fb9c6f8d3b)"><path style=" stroke:none;fill-rule:nonzero;fill:#2a424d;fill-opacity:1;" d="M 131.882812 217.570312 C 129.574219 217.570312 127.683594 219.460938 127.683594 221.769531 C 127.683594 226.601562 123.902344 230.59375 119.28125 230.59375 C 115.710938 230.59375 112.5625 228.28125 111.511719 224.921875 C 110.882812 223.453125 109.410156 222.191406 107.941406 222.191406 C 106.261719 222.191406 104.792969 223.03125 103.949219 224.5 C 103.109375 226.183594 101.222656 227.230469 99.539062 227.230469 C 97.648438 227.230469 95.96875 226.183594 94.921875 224.292969 C 94.289062 223.03125 92.820312 222.191406 91.347656 221.980469 C 89.878906 221.769531 88.410156 222.613281 87.570312 223.871094 C 86.308594 225.761719 84.207031 227.023438 81.898438 227.023438 C 77.90625 227.023438 74.757812 223.660156 74.757812 219.671875 C 74.757812 217.359375 72.867188 215.46875 70.765625 215.46875 C 64.886719 215.261719 60.476562 210.429688 60.476562 204.550781 C 60.476562 198.457031 65.097656 193.628906 71.1875 193.628906 C 72.65625 193.839844 74.128906 193.207031 75.175781 192.15625 C 76.226562 190.898438 76.4375 189.21875 75.597656 187.746094 C 75.175781 186.695312 74.96875 185.648438 74.96875 184.597656 C 74.96875 180.605469 78.117188 177.246094 82.109375 177.246094 C 84.839844 177.246094 87.359375 178.925781 88.621094 181.445312 C 89.25 183.125 91.140625 184.175781 92.820312 183.964844 C 94.710938 183.757812 96.179688 182.496094 96.601562 180.605469 C 97.648438 175.566406 102.0625 171.996094 106.890625 171.996094 C 112.773438 171.996094 117.601562 176.824219 117.601562 182.917969 C 117.601562 185.226562 119.492188 187.117188 121.804688 187.117188 C 124.113281 187.117188 126.003906 185.226562 126.003906 182.917969 C 126.003906 172.207031 117.394531 163.59375 106.890625 163.59375 C 100.589844 163.59375 94.921875 166.746094 91.347656 171.785156 C 88.828125 169.894531 85.46875 168.636719 82.109375 168.636719 C 73.496094 168.636719 66.566406 175.777344 66.566406 184.386719 C 66.566406 184.808594 66.566406 185.226562 66.566406 185.855469 C 58.375 187.957031 52.285156 195.519531 52.285156 204.550781 C 52.285156 213.789062 58.585938 221.5625 66.988281 223.453125 C 68.667969 230.382812 74.757812 235.421875 82.109375 235.421875 C 85.257812 235.421875 88.410156 234.371094 90.929688 232.484375 C 93.238281 234.371094 96.390625 235.632812 99.539062 235.632812 C 102.269531 235.632812 104.792969 234.792969 107.101562 233.324219 C 110.25 236.894531 114.664062 238.992188 119.703125 238.992188 C 128.945312 238.992188 136.503906 231.222656 136.503906 221.769531 C 136.085938 219.460938 134.40625 217.570312 131.882812 217.570312 Z M 131.882812 217.570312 "/></g><path style=" stroke:none;fill-rule:nonzero;fill:#2a424d;fill-opacity:1;" d="M 103.742188 205.597656 C 103.742188 205.597656 103.949219 205.597656 103.742188 205.597656 C 106.261719 205.597656 107.941406 203.917969 108.152344 201.609375 C 108.152344 199.296875 106.472656 197.410156 104.160156 197.199219 C 103.109375 197.199219 102.0625 196.566406 101.222656 195.9375 C 100.378906 194.886719 99.960938 193.839844 100.171875 192.789062 C 100.171875 190.476562 98.492188 188.585938 96.179688 188.378906 C 93.871094 188.378906 91.980469 190.058594 91.769531 192.367188 C 91.558594 195.726562 92.820312 198.878906 95.128906 201.398438 C 97.230469 203.917969 100.378906 205.390625 103.742188 205.597656 Z M 103.742188 205.597656 "/><path style=" stroke:none;fill-rule:nonzero;fill:#2a424d;fill-opacity:1;" d="M 79.167969 204.96875 C 76.859375 205.597656 75.597656 207.699219 76.019531 210.011719 C 76.648438 212.320312 78.75 213.582031 81.058594 213.160156 C 83.367188 212.53125 85.679688 214 86.097656 216.3125 C 86.519531 218.199219 88.199219 219.460938 90.089844 219.460938 C 90.507812 219.460938 90.71875 219.460938 91.140625 219.25 C 93.449219 218.621094 94.710938 216.519531 94.289062 214.210938 C 92.820312 207.699219 85.890625 203.5 79.167969 204.96875 Z M 79.167969 204.96875 "/></g></svg>