<svg xmlns="http://www.w3.org/2000/svg" xmlns:xlink="http://www.w3.org/1999/xlink" width="500" zoomAndPan="magnify" viewBox="0 0 375 374.999991" height="500" preserveAspectRatio="xMidYMid meet" version="1.2"><defs><clipPath id="50810b4ee1"><path d="M 64.210938 67.621094 L 310.796875 67.621094 L 310.796875 307.363281 L 64.210938 307.363281 Z M 64.210938 67.621094 "/></clipPath></defs><g id="db3209a2e4"><g clip-rule="nonzero" clip-path="url(#50810b4ee1)"><path style=" stroke:none;fill-rule:nonzero;fill:#2a424d;fill-opacity:1;" d="M 267.679688 283.167969 C 263.796875 276.109375 259.914062 269.050781 256.03125 261.992188 C 252.355469 255.3125 247.722656 248.566406 245.214844 241.328125 C 242.113281 232.378906 239.578125 223.195312 236.765625 214.15625 C 235.191406 209.09375 235.160156 207.101562 235.835938 201.53125 C 236.410156 196.789062 236.03125 190.851562 237.480469 186.316406 C 238.238281 183.953125 237.636719 185.035156 240.050781 184.660156 C 245.113281 183.875 250.835938 184.527344 255.957031 184.464844 C 259.300781 184.421875 262.875 184.011719 266.210938 184.335938 C 269.453125 184.65625 272.195312 186.519531 275.03125 188.011719 C 279.714844 190.476562 284.398438 192.9375 289.082031 195.402344 C 291.414062 196.628906 308.652344 208.058594 310.652344 204.25 C 312.648438 200.460938 293.488281 192.734375 291.132812 191.5 C 286.03125 188.816406 280.933594 186.132812 275.828125 183.449219 C 272.566406 181.734375 269.789062 180.089844 265.964844 179.929688 C 256.703125 179.546875 247.304688 180.160156 238.03125 180.277344 C 238.722656 172.300781 244.019531 164.894531 247.042969 157.457031 C 247.589844 156.113281 248.503906 151.605469 249.601562 150.753906 C 250.34375 150.175781 252.828125 150.316406 253.738281 150.191406 C 261.09375 149.195312 269.046875 147.144531 276.480469 147.917969 C 280.832031 148.375 285.164062 149.089844 289.496094 149.671875 C 291.003906 149.875 300.777344 151.78125 297.371094 146.988281 C 295.921875 144.949219 289.808594 145.265625 287.640625 144.976562 C 283.878906 144.46875 280.109375 143.820312 276.335938 143.449219 C 267.992188 142.632812 258.953125 145.039062 250.703125 146.15625 C 251.285156 141.230469 248.941406 136.5 246 132.710938 C 257.679688 135.378906 267.058594 121.363281 260.03125 111.632812 C 259.34375 110.679688 258.523438 109.859375 257.609375 109.128906 C 256.769531 108.453125 254.429688 107.824219 253.921875 107.089844 C 252.960938 105.714844 254.171875 101.953125 253.878906 99.699219 C 253.566406 97.328125 252.722656 95.144531 250.761719 93.703125 C 249.375 92.6875 247.863281 92.3125 246.136719 92.332031 C 243.402344 92.359375 241.578125 93.917969 239.082031 94.539062 C 236.433594 95.199219 237.582031 95.332031 235.664062 93.65625 C 234.640625 92.761719 233.421875 92.003906 232.164062 91.480469 C 220.375 86.585938 208.804688 100.800781 215.785156 111.445312 C 211.199219 109.964844 205.933594 109.410156 201.515625 111.710938 C 200.113281 105.011719 198.957031 98.214844 197.304688 91.574219 C 196.257812 87.347656 194.050781 83.609375 192.078125 79.765625 C 190.402344 76.5 188.957031 71.832031 186.570312 69.039062 C 185.269531 67.519531 182.660156 66.609375 182.210938 69.542969 C 182.050781 70.566406 183.199219 72.125 183.617188 72.949219 C 185.753906 77.101562 187.886719 81.257812 190.019531 85.410156 C 193.339844 91.875 194.3125 98.800781 195.789062 105.878906 C 196.234375 108.007812 197.210938 110.546875 197.21875 112.71875 C 197.226562 115.070312 197.039062 114.699219 194.800781 116.519531 C 187.769531 122.25 181.683594 130.964844 173.507812 134.683594 C 171.71875 129.4375 169.933594 124.191406 168.148438 118.949219 C 166.398438 113.8125 165.210938 107.363281 161.371094 103.335938 C 153.480469 95.066406 144.421875 87.671875 136.03125 79.914062 C 135.441406 79.367188 124.550781 68.867188 126.160156 76.382812 C 126.789062 79.324219 132.945312 83.0625 134.96875 84.929688 C 140.472656 90.023438 145.980469 95.113281 151.488281 100.203125 C 154.472656 102.960938 158.507812 105.722656 160.265625 109.480469 C 162.523438 114.304688 163.8125 119.894531 165.527344 124.929688 C 166.484375 127.730469 167.433594 130.535156 168.390625 133.335938 C 169.789062 137.441406 169.347656 136.570312 164.933594 138.65625 C 159.816406 141.078125 153.488281 145.710938 148.011719 146.957031 C 146.398438 147.328125 144.421875 147.097656 142.773438 147.164062 C 135.597656 147.445312 128.425781 147.722656 121.25 148.003906 C 111.285156 148.394531 102.328125 146.953125 92.472656 145.339844 C 85.648438 144.222656 78.824219 143.105469 72 141.984375 C 70.449219 141.730469 68.488281 141.042969 66.902344 141.152344 C 63.53125 141.378906 63.371094 144.214844 66.1875 145.503906 C 67.796875 146.238281 70.277344 146.171875 72.007812 146.453125 C 75.902344 147.09375 79.792969 147.730469 83.6875 148.367188 C 91.011719 149.566406 98.335938 150.765625 105.660156 151.96875 C 116.523438 153.746094 128.003906 152.152344 138.953125 151.726562 C 122.558594 160.527344 106.304688 170.136719 91.902344 181.988281 C 82.011719 190.125 69.257812 201.554688 68.386719 215.34375 C 67.78125 224.875 79.417969 225.320312 86.695312 225.410156 C 103.292969 225.613281 120.070312 221.445312 135.964844 217.144531 C 134.109375 236.886719 154.804688 251.570312 172.847656 243.203125 C 174.039062 258.785156 175.707031 274.84375 180.601562 289.773438 C 182.398438 295.242188 184.769531 301.984375 189.449219 305.75 C 191.617188 307.488281 192.902344 307.730469 195.496094 306.910156 C 207.816406 303.007812 214.652344 288.335938 219.042969 277.355469 C 226.539062 258.609375 230.464844 238.417969 233.511719 218.539062 C 237.066406 229.96875 239.835938 241.699219 245.625 252.214844 C 249.738281 259.699219 253.855469 267.183594 257.972656 274.667969 C 259.609375 277.644531 261.148438 280.703125 262.894531 283.617188 C 263.175781 284.082031 263.402344 284.90625 263.800781 285.265625 C 265.523438 286.804688 269.300781 286.117188 267.679688 283.167969 "/></g></g></svg>