<svg xmlns="http://www.w3.org/2000/svg" xmlns:xlink="http://www.w3.org/1999/xlink" width="500" zoomAndPan="magnify" viewBox="0 0 375 374.999991" height="500" preserveAspectRatio="xMidYMid meet" version="1.2"><defs><clipPath id="bac708ef17"><path d="M 132 67.207031 L 303 67.207031 L 303 119 L 132 119 Z M 132 67.207031 "/></clipPath><clipPath id="d918ab11a4"><path d="M 53.46875 162 L 255 162 L 255 210 L 53.46875 210 Z M 53.46875 162 "/></clipPath><clipPath id="a4f68edefb"><path d="M 118 195 L 321.21875 195 L 321.21875 307.957031 L 118 307.957031 Z M 118 195 "/></clipPath></defs><g id="8a55d6a877"><g clip-rule="nonzero" clip-path="url(#bac708ef17)"><path style=" stroke:none;fill-rule:nonzero;fill:#2a424d;fill-opacity:0.996;" d="M 165.820312 67.253906 L 165.300781 67.257812 C 158.777344 67.335938 152.050781 68.574219 145.121094 70.972656 C 137.054688 74.257812 132.875 77.054688 132.578125 79.363281 C 140.753906 77.046875 148.203125 75.96875 154.921875 76.132812 C 162.757812 76.144531 168.945312 77.300781 173.488281 79.601562 C 177.558594 81.355469 181.445312 84.800781 185.140625 89.9375 C 187.757812 93.671875 190.6875 99.804688 193.921875 108.335938 C 195.296875 110.71875 196.25 112.113281 196.78125 112.511719 C 200.558594 116.394531 205.820312 118.535156 212.570312 118.929688 C 215.292969 118.863281 217.488281 118.273438 219.164062 117.160156 C 225.8125 111.21875 232.058594 106.980469 237.90625 104.441406 C 243.867188 101.714844 250.851562 99.792969 258.863281 98.675781 C 265.402344 97.914062 270.75 98.023438 274.898438 99.011719 L 278.472656 99.855469 C 287.324219 103.046875 295.359375 105.550781 302.578125 107.367188 C 300.871094 106.960938 299.148438 106.214844 297.414062 105.132812 L 282.132812 94.664062 C 280.835938 93.84375 279.296875 93.050781 277.511719 92.28125 C 271.734375 89.722656 265.304688 88.363281 258.21875 88.203125 C 249.007812 87.941406 239.59375 89.402344 229.980469 92.589844 C 220.082031 96.394531 213.386719 100.613281 209.890625 105.246094 C 204.789062 92.476562 198.757812 83.125 191.804688 77.179688 C 188.882812 74.519531 184.59375 71.945312 178.929688 69.460938 C 175.230469 68.023438 170.863281 67.289062 165.820312 67.253906 "/></g><g clip-rule="nonzero" clip-path="url(#d918ab11a4)"><path style=" stroke:none;fill-rule:nonzero;fill:#2a424d;fill-opacity:0.996;" d="M 204.636719 162.566406 L 204.339844 162.566406 C 192.28125 162.578125 180.871094 165.4375 170.097656 171.148438 C 158.539062 177.660156 150.886719 185.007812 147.144531 193.1875 C 135.859375 179.105469 123.136719 171.886719 108.984375 171.527344 C 101 171.425781 92.421875 173.195312 83.246094 176.832031 C 73.949219 180.539062 66.046875 185.140625 59.550781 190.632812 C 55.515625 194.222656 53.601562 196.660156 53.816406 197.949219 C 65.21875 192.398438 75.375 188.664062 84.289062 186.75 C 95.347656 184.25 104.148438 183.792969 110.6875 185.375 C 114.175781 186.070312 117.851562 187.890625 121.722656 190.839844 C 124.351562 192.664062 128.3125 197.019531 133.609375 203.902344 C 135.488281 205.683594 136.742188 206.695312 137.363281 206.933594 C 140.570312 208.835938 144.65625 209.773438 149.625 209.746094 C 153.960938 209.886719 157.375 208.875 159.863281 206.710938 L 167.636719 193.351562 C 170.984375 189.730469 174.054688 186.917969 176.847656 184.917969 C 183.058594 180.480469 189.613281 177.304688 196.511719 175.390625 C 203.933594 173.121094 212.246094 172.226562 221.449219 172.707031 C 237.289062 174.539062 248.273438 176.695312 254.402344 179.183594 C 253.296875 178.933594 246.910156 175.773438 235.246094 169.703125 C 231.988281 168.191406 228.945312 166.964844 226.113281 166.023438 C 219.335938 163.734375 212.179688 162.582031 204.636719 162.566406 "/></g><g clip-rule="nonzero" clip-path="url(#a4f68edefb)"><path style=" stroke:none;fill-rule:nonzero;fill:#2a424d;fill-opacity:0.996;" d="M 213.140625 273.027344 C 213.183594 273.035156 213.246094 273.050781 213.324219 273.070312 C 213.40625 273.097656 213.464844 273.117188 213.496094 273.128906 L 213.519531 273.140625 C 213.53125 273.148438 213.539062 273.15625 213.546875 273.160156 C 213.554688 273.171875 213.558594 273.183594 213.558594 273.199219 L 213.550781 273.195312 C 213.546875 273.195312 213.535156 273.191406 213.523438 273.1875 C 213.496094 273.175781 213.457031 273.160156 213.402344 273.136719 C 213.367188 273.125 213.277344 273.085938 213.132812 273.027344 L 213.140625 273.027344 M 321.234375 195.464844 L 321.167969 195.472656 L 292.492188 201.269531 C 287.625 202.425781 282.914062 203.765625 278.355469 205.296875 C 266.21875 209.433594 255.136719 214.632812 245.109375 220.894531 C 222.382812 235.796875 208.773438 251.90625 204.277344 269.226562 C 186.386719 261.554688 175.320312 257.929688 171.082031 258.359375 C 160.269531 257.316406 151.421875 258.769531 144.542969 262.714844 C 137.804688 266.378906 131.292969 273.464844 125.015625 283.976562 C 118.824219 295.464844 117.0625 303.285156 119.742188 307.441406 C 120.898438 301.671875 125.828125 294.136719 134.535156 284.832031 C 141.601562 277.625 147.925781 273.507812 153.515625 272.480469 C 159.726562 271.480469 166.261719 272.097656 173.117188 274.332031 C 174.925781 274.488281 186.238281 280.144531 207.0625 291.296875 C 209.882812 292.304688 212.050781 292.460938 213.558594 291.769531 C 215.628906 290.648438 217.742188 287.761719 219.898438 283.109375 C 221.054688 281.300781 223.265625 275.234375 226.527344 264.90625 C 227.542969 262.449219 228.84375 259.949219 230.425781 257.402344 C 235.191406 250.074219 240.851562 243.519531 247.40625 237.734375 C 256.140625 229.910156 266.390625 222.640625 278.160156 215.921875 C 297.339844 205.238281 311.699219 198.421875 321.234375 195.464844 "/></g></g></svg>