<svg xmlns="http://www.w3.org/2000/svg" xmlns:xlink="http://www.w3.org/1999/xlink" width="500" zoomAndPan="magnify" viewBox="0 0 375 374.999991" height="500" preserveAspectRatio="xMidYMid meet" version="1.2"><defs><clipPath id="82cd8eaf79"><path d="M 69.300781 72 L 305.550781 72 L 305.550781 303 L 69.300781 303 Z M 69.300781 72 "/></clipPath></defs><g id="eeab358906"><g clip-rule="nonzero" clip-path="url(#82cd8eaf79)"><path style=" stroke:none;fill-rule:nonzero;fill:#2a424d;fill-opacity:1;" d="M 303.222656 214.097656 L 261.597656 172.46875 C 258.492188 169.367188 253.460938 169.367188 250.355469 172.46875 L 238.859375 183.964844 C 238.167969 173.953125 236.773438 164.296875 234.742188 155.253906 C 234.683594 154.910156 234.609375 154.578125 234.507812 154.253906 C 233.949219 151.832031 233.355469 149.449219 232.703125 147.125 L 252.863281 126.972656 L 288.867188 162.296875 C 290.414062 163.8125 292.425781 164.570312 294.433594 164.570312 C 296.492188 164.570312 298.550781 163.773438 300.109375 162.1875 C 303.183594 159.054688 303.136719 154.019531 300.003906 150.945312 L 258.375 110.105469 C 255.261719 107.050781 250.273438 107.074219 247.1875 110.160156 L 226.871094 130.46875 C 226.503906 129.617188 226.140625 128.761719 225.757812 127.929688 C 219.445312 114.203125 211.460938 104.496094 202.5 99.40625 L 213.679688 88.226562 L 285.984375 88.226562 C 290.375 88.226562 293.933594 84.664062 293.933594 80.273438 C 293.933594 75.882812 290.375 72.324219 285.984375 72.324219 L 210.386719 72.324219 C 208.277344 72.324219 206.257812 73.160156 204.765625 74.652344 L 187.429688 91.988281 L 170.09375 74.65625 C 168.601562 73.164062 166.578125 72.328125 164.46875 72.328125 L 88.871094 72.328125 C 84.480469 72.328125 80.921875 75.886719 80.921875 80.277344 C 80.921875 84.667969 84.480469 88.226562 88.871094 88.226562 L 161.179688 88.226562 L 172.359375 99.40625 C 163.394531 104.5 155.410156 114.203125 149.097656 127.933594 C 148.714844 128.761719 148.351562 129.621094 147.984375 130.472656 L 127.671875 110.160156 C 124.585938 107.078125 119.59375 107.054688 116.484375 110.109375 L 74.855469 150.945312 C 71.722656 154.023438 71.671875 159.054688 74.746094 162.1875 C 76.304688 163.777344 78.363281 164.570312 80.421875 164.570312 C 82.433594 164.570312 84.441406 163.816406 85.988281 162.296875 L 121.996094 126.972656 L 142.152344 147.125 C 141.441406 149.667969 140.789062 152.273438 140.1875 154.929688 C 140.179688 154.96875 140.167969 155.007812 140.160156 155.046875 C 138.105469 164.152344 136.695312 173.875 135.996094 183.964844 L 124.5 172.46875 C 121.398438 169.367188 116.363281 169.367188 113.257812 172.472656 L 71.628906 214.097656 C 68.527344 217.203125 68.527344 222.234375 71.628906 225.339844 C 73.183594 226.894531 75.21875 227.667969 77.253906 227.667969 C 79.285156 227.667969 81.320312 226.894531 82.875 225.339844 L 118.878906 189.335938 L 135.613281 206.066406 C 136.0625 219.777344 137.792969 232.972656 140.683594 245.007812 L 115.976562 245.007812 C 111.582031 245.007812 108.023438 248.566406 108.023438 252.957031 L 108.023438 294.578125 C 108.023438 298.96875 111.582031 302.527344 115.976562 302.527344 C 120.367188 302.527344 123.925781 298.96875 123.925781 294.578125 L 123.925781 260.90625 L 145.4375 260.90625 C 146.570312 264.019531 147.785156 267.023438 149.097656 269.878906 C 158.777344 290.933594 172.390625 302.527344 187.429688 302.527344 C 187.429688 302.527344 187.429688 302.527344 187.433594 302.527344 C 187.4375 302.527344 187.441406 302.527344 187.441406 302.527344 C 202.472656 302.523438 216.082031 290.925781 225.757812 269.878906 C 227.070312 267.023438 228.285156 264.019531 229.414062 260.910156 L 250.929688 260.910156 L 250.929688 294.582031 C 250.929688 298.972656 254.488281 302.53125 258.882812 302.53125 C 263.273438 302.53125 266.832031 298.972656 266.832031 294.582031 L 266.832031 252.957031 C 266.832031 248.566406 263.273438 245.007812 258.882812 245.007812 L 234.167969 245.007812 C 237.0625 232.972656 238.789062 219.777344 239.238281 206.070312 L 255.972656 189.335938 L 291.980469 225.339844 C 293.53125 226.890625 295.566406 227.667969 297.601562 227.667969 C 299.636719 227.667969 301.671875 226.894531 303.222656 225.339844 C 306.328125 222.234375 306.328125 217.203125 303.222656 214.097656 Z M 187.429688 111.183594 C 197.808594 111.183594 208.90625 124.5625 216.003906 146.683594 C 216.101562 147.105469 216.230469 147.523438 216.398438 147.925781 C 216.476562 148.175781 216.554688 148.421875 216.632812 148.671875 L 158.222656 148.671875 C 158.296875 148.425781 158.375 148.183594 158.449219 147.9375 C 158.625 147.523438 158.757812 147.09375 158.859375 146.660156 C 165.957031 124.550781 177.050781 111.183594 187.429688 111.183594 Z M 158.863281 251.167969 C 158.757812 250.710938 158.621094 250.265625 158.441406 249.84375 C 154.121094 235.855469 151.382812 218.511719 151.382812 198.902344 C 151.382812 186.453125 152.496094 174.921875 154.40625 164.570312 L 179.484375 164.570312 L 179.484375 284.128906 C 171.6875 279.304688 164.164062 267.671875 158.863281 251.167969 Z M 195.386719 284.121094 L 195.386719 164.570312 L 220.449219 164.570312 C 222.363281 174.921875 223.472656 186.453125 223.472656 198.902344 C 223.472656 218.515625 220.734375 235.867188 216.410156 249.855469 C 216.238281 250.265625 216.101562 250.699219 216 251.140625 C 210.699219 267.648438 203.179688 279.289062 195.386719 284.121094 Z M 195.386719 284.121094 "/></g></g></svg>