<svg xmlns="http://www.w3.org/2000/svg" xmlns:xlink="http://www.w3.org/1999/xlink" width="500" zoomAndPan="magnify" viewBox="0 0 375 374.999991" height="500" preserveAspectRatio="xMidYMid meet" version="1.2"><defs><clipPath id="1c7a97f9d8"><path d="M 44.417969 97.253906 L 337.667969 97.253906 L 337.667969 278 L 44.417969 278 Z M 44.417969 97.253906 "/></clipPath></defs><g id="2419aceefd"><g clip-rule="nonzero" clip-path="url(#1c7a97f9d8)"><path style=" stroke:none;fill-rule:evenodd;fill:#2a424d;fill-opacity:1;" d="M 334.191406 277.707031 C 333.605469 277.707031 332.78125 277.308594 332.355469 276.824219 C 331.933594 276.34375 331.355469 274.363281 331.074219 272.425781 C 330.789062 270.492188 330.058594 267.585938 329.445312 265.96875 C 328.835938 264.355469 327.003906 261.039062 325.371094 258.597656 C 323.742188 256.160156 321.222656 253.09375 319.769531 251.785156 C 318.320312 250.472656 315.550781 248.234375 313.617188 246.808594 C 311.679688 245.386719 306.476562 241.992188 302.054688 239.265625 C 297.628906 236.542969 291.972656 233.03125 289.484375 231.460938 C 286.996094 229.890625 284.445312 228.332031 283.816406 227.996094 C 282.730469 227.417969 282.601562 227.53125 281.46875 230.089844 C 280.8125 231.578125 278.96875 235.152344 277.375 238.035156 C 275.78125 240.914062 273.347656 244.855469 271.972656 246.789062 C 270.597656 248.726562 268.09375 252 266.40625 254.070312 C 264.722656 256.136719 260.292969 260.949219 256.558594 264.761719 L 249.773438 271.6875 L 208.25 271.671875 L 203.445312 273.71875 C 200.070312 275.152344 197.625 275.847656 195.230469 276.046875 C 193.355469 276.207031 191.226562 276.183594 190.496094 276 C 189.769531 275.820312 188.726562 275.222656 188.179688 274.675781 C 187.632812 274.128906 187.1875 273.105469 187.1875 272.394531 C 187.1875 271.160156 187.101562 271.121094 184.964844 271.441406 C 183.742188 271.625 181.847656 271.625 180.75 271.4375 C 179.652344 271.253906 178.277344 270.65625 177.691406 270.109375 C 177.03125 269.492188 176.628906 268.503906 176.628906 267.480469 C 176.628906 266.578125 177.203125 264.683594 177.90625 263.277344 C 178.609375 261.867188 180.3125 259.65625 181.691406 258.367188 C 183.074219 257.074219 185.382812 255.480469 186.824219 254.824219 C 188.269531 254.167969 190.917969 253.390625 192.714844 253.101562 C 194.511719 252.816406 198.433594 252.578125 201.429688 252.574219 L 206.871094 252.570312 L 204.039062 249.980469 C 202.480469 248.558594 199.285156 244.835938 196.9375 241.710938 C 194.589844 238.582031 191.605469 235.078125 190.304688 233.921875 C 189.003906 232.765625 186.769531 231.0625 185.339844 230.140625 C 183.910156 229.214844 180.96875 227.847656 178.804688 227.101562 C 175.34375 225.90625 174.117188 225.746094 168.585938 225.75 C 163.441406 225.753906 161.4375 225.988281 157.527344 227.039062 C 154.902344 227.746094 150.9375 229.027344 148.71875 229.882812 C 146.046875 230.914062 143.246094 232.546875 140.425781 234.714844 C 138.035156 236.546875 134.519531 238.675781 132.425781 239.550781 C 129.773438 240.660156 127.847656 241.125 125.796875 241.144531 C 123.886719 241.160156 122.46875 240.878906 121.601562 240.3125 C 120.882812 239.839844 120.164062 238.808594 120.007812 238.023438 C 119.722656 236.609375 119.679688 236.59375 116.867188 236.847656 C 114.300781 237.082031 113.847656 236.96875 112.394531 235.746094 C 111.074219 234.632812 110.777344 234.019531 110.777344 232.394531 C 110.777344 231.296875 111.226562 229.46875 111.777344 228.328125 C 112.328125 227.1875 112.726562 226.207031 112.65625 226.152344 C 112.589844 226.09375 111.066406 225.304688 109.269531 224.402344 C 107.472656 223.496094 104.199219 222.140625 102 221.390625 C 99.800781 220.640625 97.921875 219.78125 97.820312 219.484375 C 97.703125 219.128906 98.296875 219.042969 99.558594 219.230469 C 100.613281 219.390625 103.511719 220.175781 106 220.980469 C 108.488281 221.78125 111.3125 222.859375 112.273438 223.375 L 114.023438 224.3125 L 116.96875 221.851562 C 118.585938 220.5 120.164062 219.390625 120.472656 219.390625 C 120.820312 219.390625 120.851562 219.226562 120.554688 218.949219 C 120.292969 218.707031 118.347656 218.128906 116.234375 217.671875 C 114.121094 217.210938 109.824219 216.621094 106.683594 216.363281 C 103.542969 216.101562 100.644531 215.886719 100.246094 215.882812 C 99.671875 215.875 99.648438 215.742188 100.125 215.265625 C 100.550781 214.839844 102.917969 214.664062 107.890625 214.6875 C 114.230469 214.714844 115.734375 214.898438 121.03125 216.285156 L 127.007812 217.851562 L 128.929688 216.332031 C 129.984375 215.496094 131.757812 213.78125 132.867188 212.515625 C 133.980469 211.253906 134.785156 210.054688 134.660156 209.851562 C 134.535156 209.648438 132.671875 209.195312 130.523438 208.847656 C 128.371094 208.496094 123.898438 208.222656 120.578125 208.234375 C 117.261719 208.25 112.964844 208.511719 111.027344 208.816406 C 109.09375 209.125 107.113281 209.496094 106.628906 209.640625 C 106.144531 209.789062 105.75 209.679688 105.75 209.394531 C 105.75 209.113281 107.839844 208.21875 110.398438 207.402344 C 112.957031 206.589844 117.144531 205.640625 119.703125 205.296875 C 122.652344 204.898438 126.710938 204.78125 130.761719 204.976562 C 134.285156 205.144531 138.523438 205.578125 140.183594 205.933594 C 142.90625 206.523438 143.1875 206.703125 143.070312 207.777344 C 142.996094 208.433594 141.9375 210.464844 140.714844 212.296875 C 139.492188 214.125 137.289062 216.789062 135.820312 218.214844 C 134.347656 219.640625 132.265625 221.394531 131.191406 222.109375 C 130.117188 222.828125 128.644531 223.414062 127.921875 223.417969 C 127.203125 223.417969 125.722656 223.667969 124.636719 223.96875 C 123.332031 224.328125 121.746094 225.449219 119.984375 227.253906 C 118.515625 228.761719 117.3125 230.191406 117.3125 230.429688 C 117.3125 230.667969 118.5 230.546875 119.949219 230.160156 C 121.402344 229.773438 123.296875 229.457031 124.160156 229.453125 C 125.027344 229.449219 126.015625 229.785156 126.359375 230.199219 C 126.699219 230.609375 126.871094 231.457031 126.734375 232.082031 C 126.601562 232.707031 126.335938 233.582031 126.144531 234.03125 C 125.925781 234.546875 126.085938 234.957031 126.578125 235.144531 C 127.007812 235.308594 128.789062 234.699219 130.535156 233.789062 C 132.28125 232.878906 135.28125 230.925781 137.199219 229.453125 C 139.117188 227.980469 141.929688 226.21875 143.453125 225.535156 C 144.972656 224.855469 147.800781 223.75 149.734375 223.085938 C 151.671875 222.417969 156.570312 220.976562 160.621094 219.878906 C 164.671875 218.78125 169.988281 217.046875 172.433594 216.019531 C 174.878906 214.996094 179.144531 212.644531 181.910156 210.792969 C 184.671875 208.941406 187.417969 206.894531 188.003906 206.246094 C 188.589844 205.597656 189.355469 203.820312 189.703125 202.300781 C 190.050781 200.78125 190.976562 198.105469 191.761719 196.359375 C 192.546875 194.613281 194.21875 191.632812 195.480469 189.734375 C 196.742188 187.839844 199.453125 184.71875 201.503906 182.800781 C 204.125 180.351562 206.621094 178.625 209.910156 176.980469 C 212.480469 175.695312 216.054688 174.257812 217.851562 173.78125 C 220.007812 173.214844 223.082031 172.917969 226.898438 172.910156 C 231.628906 172.898438 233.316406 173.109375 236.164062 174.0625 C 238.082031 174.703125 240.472656 175.644531 241.476562 176.160156 C 242.484375 176.671875 244.453125 178 245.851562 179.105469 C 247.253906 180.210938 248.902344 181.824219 249.515625 182.6875 C 250.132812 183.554688 250.507812 184.390625 250.351562 184.546875 C 250.195312 184.703125 247.738281 183.800781 244.894531 182.539062 C 242.046875 181.277344 237.976562 179.890625 235.84375 179.460938 C 233.714844 179.027344 230.074219 178.671875 227.753906 178.671875 C 225.207031 178.671875 222.011719 179.066406 219.664062 179.664062 C 217.535156 180.210938 214.160156 181.507812 212.171875 182.546875 C 209.753906 183.804688 207.296875 185.691406 204.78125 188.21875 C 202.707031 190.300781 200.15625 193.472656 199.113281 195.265625 C 198.070312 197.0625 196.632812 200.339844 195.917969 202.550781 C 194.976562 205.472656 194.550781 208.097656 194.355469 212.144531 C 194.199219 215.472656 194.332031 219.101562 194.691406 221.167969 C 195.023438 223.0625 195.984375 226.40625 196.828125 228.589844 C 197.667969 230.777344 199.671875 234.527344 201.273438 236.921875 C 202.917969 239.378906 206.183594 243.203125 208.757812 245.683594 C 211.421875 248.253906 215.757812 251.671875 219.160156 253.890625 C 223.558594 256.761719 224.851562 257.839844 224.414062 258.273438 C 224.011719 258.679688 218.828125 258.929688 207.394531 259.105469 L 190.957031 259.355469 L 188.695312 260.695312 C 187.449219 261.429688 185.769531 262.730469 184.957031 263.585938 C 183.660156 264.945312 183.601562 265.136719 184.453125 265.132812 C 184.988281 265.128906 186.671875 264.792969 188.191406 264.382812 C 189.710938 263.976562 191.792969 263.640625 192.8125 263.636719 C 194.140625 263.632812 194.882812 263.933594 195.417969 264.695312 C 195.980469 265.5 196.039062 266.085938 195.660156 267.082031 C 195.386719 267.808594 194.800781 268.800781 194.363281 269.285156 C 193.621094 270.101562 193.664062 270.164062 194.964844 270.164062 C 195.734375 270.164062 198.539062 269.203125 201.199219 268.027344 L 206.039062 265.890625 L 226.46875 265.75 L 246.902344 265.609375 L 254.132812 258.203125 C 258.105469 254.128906 262.824219 248.820312 264.613281 246.40625 C 266.40625 243.992188 269.066406 240.039062 270.53125 237.617188 C 271.992188 235.195312 273.988281 231.550781 274.960938 229.515625 C 275.9375 227.480469 277.398438 224.011719 278.210938 221.804688 C 279.027344 219.597656 280.34375 215.15625 281.144531 211.933594 C 281.945312 208.707031 282.863281 204.167969 283.191406 201.839844 C 283.515625 199.515625 283.773438 193.628906 283.757812 188.765625 C 283.738281 182.351562 283.457031 178.328125 282.738281 174.144531 C 282.191406 170.964844 281.152344 166.332031 280.429688 163.84375 C 279.703125 161.355469 278.226562 157.058594 277.144531 154.292969 C 276.0625 151.527344 273.707031 146.796875 271.90625 143.777344 C 270.109375 140.757812 267.578125 136.914062 266.277344 135.230469 C 264.976562 133.550781 262.898438 131.042969 261.65625 129.660156 C 260.417969 128.277344 257.6875 125.59375 255.59375 123.695312 C 253.496094 121.796875 249.453125 118.710938 246.609375 116.832031 C 243.761719 114.957031 239.566406 112.621094 237.285156 111.640625 C 235.003906 110.660156 231.113281 109.273438 228.636719 108.554688 C 226.164062 107.835938 222.667969 107.039062 220.871094 106.777344 C 219.070312 106.515625 214.546875 106.304688 210.8125 106.300781 C 205.996094 106.300781 202.644531 106.585938 199.25 107.289062 C 196.625 107.835938 194.304688 108.285156 194.097656 108.289062 C 193.890625 108.292969 193.269531 107.84375 192.714844 107.289062 C 192.164062 106.738281 191.710938 105.734375 191.710938 105.066406 C 191.710938 104.359375 192.246094 103.421875 192.980469 102.847656 C 193.746094 102.242188 196.179688 101.488281 199.136719 100.933594 C 202.453125 100.3125 206.375 100.015625 211.316406 100.019531 C 216.144531 100.019531 220.210938 100.320312 223.363281 100.910156 C 225.976562 101.398438 230.164062 102.476562 232.660156 103.304688 C 235.160156 104.136719 239.46875 105.917969 242.230469 107.261719 C 244.996094 108.605469 248.84375 110.78125 250.777344 112.097656 C 252.714844 113.414062 256.542969 116.433594 259.289062 118.808594 C 262.03125 121.183594 265.976562 125.160156 268.054688 127.648438 C 270.128906 130.136719 273.152344 134.210938 274.769531 136.699219 C 276.386719 139.1875 278.929688 143.710938 280.421875 146.753906 C 281.910156 149.792969 284.039062 154.996094 285.152344 158.3125 C 286.265625 161.632812 287.632812 166.613281 288.191406 169.382812 C 288.75 172.152344 289.46875 177.242188 289.785156 180.695312 C 290.117188 184.308594 290.226562 189.527344 290.035156 193 C 289.855469 196.316406 289.371094 201.304688 288.960938 204.085938 C 288.554688 206.863281 287.472656 211.851562 286.5625 215.175781 L 284.910156 221.210938 L 287.449219 222.746094 C 288.847656 223.589844 293.496094 226.484375 297.78125 229.179688 C 302.066406 231.875 308.398438 235.957031 311.855469 238.25 C 315.3125 240.546875 319.484375 243.519531 321.132812 244.859375 C 322.777344 246.199219 325.632812 249.042969 327.484375 251.183594 C 329.640625 253.679688 331.765625 256.914062 333.429688 260.230469 C 334.9375 263.234375 336.324219 266.859375 336.75 268.910156 C 337.148438 270.84375 337.480469 273.261719 337.484375 274.285156 C 337.492188 275.640625 337.191406 276.351562 336.375 276.921875 C 335.761719 277.351562 334.78125 277.707031 334.191406 277.707031 Z M 99.636719 241.296875 C 99.539062 241.804688 98.039062 239.285156 96.128906 235.398438 C 94.296875 231.664062 92.066406 227.777344 91.175781 226.765625 C 90.285156 225.75 89.214844 224.921875 88.792969 224.921875 C 88.371094 224.921875 86.582031 225.632812 84.816406 226.5 C 81.808594 227.984375 81.359375 228.0625 77.59375 227.804688 C 74.472656 227.59375 73.0625 227.230469 71.273438 226.183594 C 70.007812 225.441406 68.910156 224.910156 68.835938 225.003906 C 68.757812 225.097656 66.589844 227.546875 64.011719 230.453125 C 61.4375 233.355469 59.140625 235.804688 58.914062 235.898438 C 58.683594 235.988281 58.496094 235.855469 58.496094 235.597656 C 58.496094 235.34375 59.605469 233.550781 60.964844 231.617188 C 62.324219 229.683594 64.507812 227.15625 65.820312 226 L 68.207031 223.898438 L 67.035156 222.652344 C 66.027344 221.582031 65.75 221.5 65.070312 222.085938 C 64.632812 222.460938 62.578125 223.753906 60.507812 224.960938 C 58.433594 226.167969 55.390625 228.121094 53.746094 229.304688 C 52.101562 230.488281 50.558594 231.457031 50.324219 231.457031 C 50.085938 231.457031 50.222656 230.988281 50.625 230.410156 C 51.027344 229.835938 53.132812 228 55.304688 226.332031 C 57.472656 224.660156 60.617188 222.617188 62.285156 221.789062 L 65.324219 220.285156 L 64.804688 218.050781 L 64.285156 215.8125 L 61.765625 216.15625 C 60.382812 216.34375 57.664062 216.910156 55.726562 217.417969 C 53.789062 217.921875 50.511719 218.910156 48.4375 219.613281 C 46.367188 220.316406 44.601562 220.894531 44.515625 220.898438 C 44.429688 220.898438 44.503906 220.667969 44.679688 220.386719 C 44.851562 220.105469 46.390625 219.167969 48.097656 218.304688 C 49.804688 217.445312 52.394531 216.328125 53.847656 215.828125 C 55.304688 215.328125 58.304688 214.640625 60.511719 214.304688 C 63.691406 213.816406 64.527344 213.511719 64.527344 212.84375 C 64.527344 212.382812 65.074219 210.972656 65.742188 209.714844 L 66.957031 207.433594 L 64.109375 206.414062 C 62.542969 205.855469 59.5625 204.9375 57.488281 204.378906 C 55.417969 203.816406 51.796875 203.101562 49.449219 202.789062 C 47.097656 202.472656 45.09375 202.132812 44.988281 202.03125 C 44.886719 201.929688 45.425781 201.691406 46.183594 201.5 C 46.945312 201.308594 49.515625 201.296875 51.898438 201.46875 C 54.28125 201.640625 57.703125 202.207031 59.5 202.730469 C 61.296875 203.25 64.125 204.253906 65.785156 204.960938 C 67.445312 205.667969 68.960938 206.09375 69.15625 205.90625 C 69.347656 205.71875 70.300781 203.371094 71.273438 200.691406 C 72.242188 198.011719 75.199219 188.851562 77.84375 180.335938 C 80.488281 171.816406 83.015625 163.832031 83.460938 162.585938 C 83.90625 161.34375 85.738281 158.0625 87.527344 155.296875 C 89.320312 152.53125 92.050781 148.6875 93.601562 146.753906 C 95.148438 144.816406 97.515625 142.058594 98.863281 140.621094 L 101.316406 138.011719 L 99.988281 134.691406 C 99.257812 132.863281 98.40625 129.460938 98.09375 127.128906 C 97.664062 123.925781 97.667969 121.925781 98.117188 118.984375 C 98.515625 116.339844 99.355469 113.765625 100.710938 111 C 102.222656 107.921875 103.515625 106.171875 105.960938 103.886719 C 108.132812 101.851562 110.128906 100.503906 112.019531 99.796875 C 113.953125 99.074219 116.007812 98.746094 118.582031 98.746094 C 121.0625 98.746094 123.1875 99.070312 124.875 99.710938 C 126.277344 100.246094 128.160156 101.242188 129.058594 101.925781 L 130.6875 103.171875 L 133.425781 101.445312 C 134.929688 100.492188 137.554688 99.285156 139.261719 98.757812 C 140.964844 98.230469 143.679688 97.652344 145.292969 97.46875 C 146.949219 97.285156 149.648438 97.398438 151.496094 97.734375 C 153.292969 98.0625 156.363281 99.070312 158.320312 99.972656 C 160.695312 101.070312 163.0625 102.730469 165.4375 104.972656 C 168.023438 107.410156 169.550781 109.402344 171.039062 112.257812 C 172.164062 114.421875 173.429688 117.515625 173.851562 119.136719 C 174.273438 120.753906 174.617188 124.09375 174.617188 126.550781 C 174.617188 129.011719 174.265625 132.414062 173.832031 134.113281 C 173.398438 135.8125 172.222656 138.898438 171.21875 140.972656 C 169.878906 143.734375 168.378906 145.753906 165.597656 148.542969 C 163.507812 150.632812 160.667969 152.96875 159.285156 153.730469 C 157.90625 154.496094 155.414062 155.585938 153.757812 156.15625 C 151.667969 156.871094 149.347656 157.210938 146.214844 157.25 C 143.378906 157.285156 141.082031 157.050781 140.050781 156.617188 C 139.097656 156.214844 138.292969 155.445312 138.125 154.777344 C 137.957031 154.117188 138.183594 153.105469 138.652344 152.390625 C 139.425781 151.207031 139.75 151.136719 145.417969 150.933594 C 150.863281 150.742188 151.640625 150.589844 154.617188 149.121094 C 156.40625 148.242188 158.9375 146.582031 160.238281 145.4375 C 161.542969 144.289062 163.421875 142.082031 164.417969 140.527344 C 165.414062 138.972656 166.683594 136.460938 167.234375 134.9375 C 167.820312 133.328125 168.335938 130.351562 168.472656 127.8125 C 168.660156 124.339844 168.492188 122.742188 167.660156 120 C 167.082031 118.101562 165.730469 115.183594 164.652344 113.519531 C 163.574219 111.851562 161.683594 109.660156 160.453125 108.652344 C 159.21875 107.640625 156.871094 106.1875 155.230469 105.417969 C 152.59375 104.183594 151.667969 104.023438 147.222656 104.023438 C 142.722656 104.023438 141.890625 104.171875 139.304688 105.441406 C 137.714844 106.222656 135.175781 107.992188 133.664062 109.371094 C 132.15625 110.753906 130.242188 113.070312 129.410156 114.515625 C 128.582031 115.964844 127.558594 118.484375 127.132812 120.117188 C 126.707031 121.75 126.359375 124.390625 126.359375 125.984375 C 126.359375 128.488281 126.195312 128.992188 125.15625 129.671875 C 124.394531 130.171875 123.476562 130.339844 122.652344 130.132812 C 121.617188 129.875 120.667969 130.296875 117.949219 132.230469 C 116.078125 133.558594 112.964844 135.929688 111.027344 137.492188 C 109.09375 139.058594 105.917969 142.011719 103.972656 144.0625 C 102.027344 146.109375 99.054688 149.597656 97.371094 151.808594 C 95.6875 154.023438 93.300781 157.410156 92.074219 159.335938 C 90.84375 161.261719 89.589844 163.515625 89.285156 164.347656 C 88.984375 165.175781 88.246094 167.433594 87.648438 169.363281 C 87.046875 171.296875 85.214844 177.289062 83.574219 182.6875 C 81.929688 188.082031 79.878906 194.535156 79.011719 197.023438 C 78.144531 199.511719 77.136719 202.144531 76.773438 202.878906 C 76.207031 204.027344 76.226562 204.253906 76.898438 204.511719 C 77.328125 204.679688 78.171875 204.816406 78.769531 204.820312 C 79.371094 204.820312 80.992188 205.359375 82.375 206.015625 C 83.757812 206.667969 85.640625 207.957031 86.5625 208.875 C 87.480469 209.789062 88.714844 211.457031 89.304688 212.578125 C 90.070312 214.039062 90.371094 215.503906 90.359375 217.75 L 90.34375 220.882812 L 92.140625 221.453125 C 93.128906 221.769531 95.519531 222.839844 97.453125 223.832031 C 100.023438 225.152344 102.273438 226.941406 105.773438 230.460938 C 108.414062 233.109375 111.066406 236.273438 111.664062 237.488281 C 112.265625 238.703125 112.667969 239.789062 112.554688 239.898438 C 112.441406 240.011719 110.3125 237.988281 107.824219 235.402344 L 103.296875 230.703125 L 104.59375 233.355469 C 105.308594 234.8125 105.71875 236.171875 105.507812 236.371094 C 105.300781 236.570312 104.871094 236.300781 104.558594 235.769531 C 104.246094 235.238281 102.84375 233.429688 101.441406 231.746094 C 100.042969 230.066406 97.976562 228.046875 96.855469 227.261719 C 95.738281 226.472656 94.457031 225.90625 94.007812 226.003906 C 93.351562 226.144531 93.617188 226.882812 95.417969 229.914062 C 96.640625 231.96875 98.128906 235.171875 98.722656 237.027344 C 99.320312 238.882812 99.734375 240.804688 99.636719 241.296875 Z M 75.484375 241.257812 C 75.117188 241.609375 75.050781 240.464844 75.265625 237.488281 C 75.4375 235.140625 75.859375 232.238281 76.210938 231.042969 C 76.558594 229.847656 77.070312 228.894531 77.347656 228.925781 C 77.625 228.960938 77.777344 229.9375 77.6875 231.101562 C 77.601562 232.265625 77.1875 234.914062 76.769531 236.988281 C 76.351562 239.058594 75.773438 240.984375 75.484375 241.257812 Z M 66.425781 240.003906 C 66.199219 240.003906 66.15625 239.382812 66.324219 238.621094 C 66.496094 237.859375 67.558594 235.253906 68.6875 232.828125 C 69.816406 230.402344 71.042969 228.164062 71.414062 227.855469 C 71.789062 227.546875 72.238281 227.4375 72.414062 227.613281 C 72.589844 227.789062 71.410156 230.652344 69.785156 233.96875 C 68.164062 237.289062 66.652344 240.003906 66.425781 240.003906 Z M 78.941406 221.886719 C 80.484375 221.902344 81.449219 221.5625 82.585938 220.605469 C 83.816406 219.566406 84.132812 218.910156 84.132812 217.375 C 84.132812 216.03125 83.734375 214.976562 82.816406 213.882812 C 82.09375 213.023438 80.859375 211.988281 80.078125 211.582031 C 79.292969 211.175781 77.386719 210.847656 75.839844 210.847656 C 73.523438 210.847656 72.808594 211.0625 71.792969 212.082031 C 70.980469 212.894531 70.558594 213.882812 70.558594 214.984375 C 70.558594 215.902344 70.945312 217.214844 71.417969 217.898438 C 71.886719 218.582031 72.625 219.433594 73.050781 219.796875 C 73.476562 220.15625 74.507812 220.769531 75.335938 221.15625 C 76.164062 221.546875 77.789062 221.875 78.941406 221.886719 Z M 110.667969 186.714844 C 110.035156 186.714844 108.554688 186.238281 107.378906 185.65625 C 106.199219 185.074219 104.820312 184 104.3125 183.269531 C 103.804688 182.539062 103.128906 181.171875 102.808594 180.230469 C 102.492188 179.292969 102.230469 178.046875 102.234375 177.46875 C 102.234375 176.886719 102.476562 175.546875 102.769531 174.492188 C 103.0625 173.433594 104.105469 171.683594 105.082031 170.597656 C 106.179688 169.382812 107.613281 168.425781 108.820312 168.101562 C 110.15625 167.742188 111.375 167.738281 112.660156 168.082031 C 113.699219 168.363281 115.292969 169.273438 116.203125 170.105469 C 117.113281 170.9375 118.1875 172.40625 118.589844 173.371094 C 118.992188 174.335938 119.320312 176.019531 119.320312 177.117188 C 119.320312 178.214844 119.082031 179.746094 118.789062 180.527344 C 118.496094 181.304688 117.535156 182.703125 116.652344 183.636719 C 115.769531 184.566406 114.320312 185.640625 113.429688 186.023438 C 112.542969 186.40625 111.296875 186.714844 110.667969 186.714844 Z M 110.113281 178.660156 C 110.4375 178.667969 111.070312 178.304688 111.523438 177.855469 C 111.972656 177.40625 112.269531 176.472656 112.1875 175.777344 C 112.101562 175.082031 111.582031 174.226562 111.027344 173.878906 C 110.363281 173.457031 109.636719 173.390625 108.890625 173.679688 C 108.019531 174.015625 107.761719 174.515625 107.761719 175.867188 C 107.761719 177.003906 108.070312 177.796875 108.640625 178.128906 C 109.125 178.414062 109.785156 178.648438 110.113281 178.660156 Z M 106.6875 132.929688 C 106.886719 132.929688 108.851562 131.542969 111.050781 129.851562 C 113.25 128.160156 116.207031 126.121094 117.621094 125.320312 C 120.039062 123.949219 120.207031 123.71875 120.472656 121.476562 C 120.628906 120.164062 121.222656 117.835938 121.796875 116.304688 C 122.371094 114.769531 123.621094 112.222656 124.570312 110.640625 L 126.300781 107.769531 L 124.195312 106.429688 C 122.738281 105.503906 121.191406 105.019531 119.199219 104.871094 C 116.8125 104.695312 115.835938 104.890625 113.578125 105.992188 C 112.074219 106.730469 110.117188 108.160156 109.226562 109.171875 C 108.339844 110.183594 106.917969 112.492188 106.066406 114.304688 C 104.761719 117.09375 104.496094 118.328125 104.335938 122.371094 C 104.179688 126.351562 104.328125 127.628906 105.234375 130.039062 C 105.835938 131.628906 106.488281 132.929688 106.6875 132.929688 Z M 106.6875 132.929688 "/></g></g></svg>