<svg xmlns="http://www.w3.org/2000/svg" xmlns:xlink="http://www.w3.org/1999/xlink" width="500" zoomAndPan="magnify" viewBox="0 0 375 374.999991" height="500" preserveAspectRatio="xMidYMid meet" version="1.2"><defs><clipPath id="5a31bc75cd"><path d="M 80.414062 52 L 294.914062 52 L 294.914062 322.699219 L 80.414062 322.699219 Z M 80.414062 52 "/></clipPath></defs><g id="4e66a7004a"><g clip-rule="nonzero" clip-path="url(#5a31bc75cd)"><path style=" stroke:none;fill-rule:nonzero;fill:#2a424d;fill-opacity:1;" d="M 196.867188 96.730469 C 197.347656 96.203125 197.613281 95.582031 197.660156 94.871094 C 197.804688 93.207031 196.242188 91.757812 193.996094 90.714844 C 193.871094 90.660156 193.820312 90.5625 193.847656 90.429688 C 193.871094 90.292969 193.953125 90.21875 194.089844 90.210938 C 197.144531 90 199.355469 88.542969 199.285156 86.667969 C 199.207031 84.539062 197.054688 83.269531 194.601562 82.589844 C 194.207031 82.484375 194.253906 82.058594 194.640625 81.949219 C 196.105469 81.535156 199.046875 80.644531 199.171875 79.152344 C 199.230469 78.410156 198.15625 77.5625 197.398438 77.039062 C 197.160156 76.875 197.1875 76.652344 197.460938 76.558594 C 198.632812 76.164062 199.03125 75.460938 199.117188 74.816406 C 199.292969 73.449219 198.253906 70.53125 192.386719 68.558594 C 192.109375 68.46875 191.328125 68.011719 191.847656 67.632812 C 196.378906 67.898438 199.84375 69.011719 200.890625 69.78125 C 207.925781 74.96875 205.875 81.492188 207.925781 99.007812 C 208.34375 102.605469 209.449219 106.144531 209.640625 110.203125 C 206.5625 108.46875 202.128906 106.078125 199.277344 104.546875 C 199.199219 101.121094 198.21875 98.632812 196.867188 96.730469 Z M 175.765625 104.359375 C 175.871094 101.152344 176.773438 98.773438 178.03125 96.929688 C 177.425781 96.375 177.09375 95.691406 177.042969 94.871094 C 176.898438 93.207031 178.460938 91.757812 180.707031 90.714844 C 180.832031 90.660156 180.882812 90.5625 180.855469 90.425781 C 180.832031 90.292969 180.75 90.21875 180.613281 90.210938 C 177.558594 90 175.347656 88.542969 175.414062 86.667969 C 175.496094 84.539062 177.648438 83.269531 180.105469 82.589844 C 180.496094 82.484375 180.449219 82.058594 180.0625 81.949219 C 178.597656 81.535156 175.65625 80.644531 175.53125 79.152344 C 175.472656 78.410156 176.546875 77.5625 177.304688 77.039062 C 177.542969 76.875 177.515625 76.652344 177.242188 76.558594 C 176.070312 76.164062 175.671875 75.460938 175.585938 74.816406 C 175.410156 73.449219 176.449219 70.53125 182.316406 68.558594 C 182.59375 68.46875 183.375 68.011719 182.855469 67.632812 C 178.324219 67.898438 174.859375 69.011719 173.8125 69.78125 C 166.777344 74.96875 168.828125 81.492188 166.777344 99.007812 C 166.355469 102.605469 165.253906 106.144531 165.0625 110.203125 C 168.265625 108.398438 172.9375 105.878906 175.765625 104.359375 Z M 180.378906 98.25 C 179.394531 99.640625 178.792969 101.179688 178.570312 102.867188 L 178.949219 102.78125 C 179.800781 102.597656 180.671875 102.445312 181.546875 102.3125 C 183.445312 102.015625 185.351562 101.839844 187.269531 101.785156 L 187.351562 101.78125 L 187.433594 101.785156 C 189.351562 101.839844 191.257812 102.015625 193.152344 102.3125 C 194.03125 102.445312 194.898438 102.597656 195.753906 102.78125 L 196.144531 102.867188 L 196.484375 103.050781 C 196.28125 101.230469 195.636719 99.582031 194.554688 98.101562 C 193.304688 96.410156 191.664062 95.246094 190.121094 94.160156 C 189.78125 93.917969 189.453125 93.683594 189.140625 93.453125 C 188.90625 93.277344 188.648438 93.140625 188.371094 93.050781 C 188.09375 92.957031 187.808594 92.910156 187.519531 92.910156 C 187.226562 92.910156 186.941406 92.957031 186.664062 93.050781 C 186.386719 93.140625 186.128906 93.277344 185.894531 93.453125 C 185.582031 93.683594 185.253906 93.917969 184.914062 94.160156 C 183.328125 95.277344 181.636719 96.480469 180.378906 98.25 Z M 128.324219 209.632812 C 133.847656 211.082031 145.609375 218.265625 149.992188 220.484375 C 152.894531 221.980469 155.980469 222.804688 159.242188 222.964844 C 159.867188 222.789062 160.445312 222.511719 160.972656 222.136719 L 160.464844 224.734375 C 160.402344 225.066406 160.449219 225.382812 160.617188 225.675781 C 160.78125 225.972656 161.023438 226.179688 161.339844 226.296875 L 163.722656 226.914062 C 163.394531 225.773438 163.421875 224.644531 163.808594 223.523438 C 164.164062 222.5 164.59375 221.390625 165.101562 220.167969 L 162.65625 219.71875 C 162.484375 219.703125 162.316406 219.71875 162.152344 219.769531 C 161.984375 219.816406 161.835938 219.898438 161.699219 220.003906 C 161.566406 220.113281 161.457031 220.242188 161.375 220.394531 C 161.289062 220.546875 161.238281 220.707031 161.21875 220.878906 C 160.976562 220.585938 160.6875 220.347656 160.347656 220.175781 C 157.402344 218.492188 156.121094 214.648438 141.199219 208.9375 C 133.109375 205.839844 129.53125 206.230469 127.949219 207.238281 C 127.925781 207.25 127.898438 207.253906 127.875 207.269531 C 126.703125 207.953125 103.769531 221.878906 103.769531 221.878906 C 103.769531 221.878906 102.460938 223.128906 102.347656 224.425781 L 100.632812 224.964844 C 98.195312 225.738281 95.671875 226.570312 95.21875 226.738281 C 94.730469 226.917969 94.847656 227.449219 95.050781 227.746094 C 94.949219 227.761719 94.363281 227.9375 93.515625 228.207031 L 90.207031 229.285156 C 87.78125 230.09375 85.265625 230.960938 84.816406 231.136719 C 84.722656 231.171875 84.648438 231.226562 84.589844 231.304688 C 83.421875 231.136719 81.824219 230.945312 81.464844 231.105469 C 81.054688 231.332031 80.722656 231.640625 80.46875 232.035156 C 80.46875 232.035156 84.886719 231.246094 85.039062 233.070312 C 85.195312 234.898438 82.84375 237.457031 82.84375 237.457031 C 82.84375 237.457031 83.898438 237.738281 84.375 236.945312 C 84.882812 236.113281 85.316406 235.246094 85.671875 234.34375 C 85.839844 234.5 86.027344 234.523438 86.230469 234.414062 L 91.273438 231.800781 L 94.347656 230.203125 C 95.128906 229.789062 95.667969 229.503906 95.753906 229.441406 C 95.820312 229.789062 96.113281 230.253906 96.582031 230.035156 L 101.664062 227.492188 L 103.40625 226.613281 C 104.113281 227.164062 105.101562 227.242188 106.328125 226.414062 C 108.984375 224.617188 122.347656 214.375 126.378906 211.085938 C 127.003906 210.566406 127.652344 210.082031 128.324219 209.632812 Z M 158.507812 244.339844 C 158.761719 243.644531 159.160156 243.035156 159.699219 242.523438 C 160.238281 242.011719 160.863281 241.648438 161.574219 241.429688 C 161.535156 241.359375 161.492188 241.289062 161.457031 241.214844 C 161.152344 240.585938 160.996094 239.917969 160.988281 239.21875 C 160.980469 238.519531 161.121094 237.851562 161.410156 237.210938 C 161.460938 237.097656 161.519531 236.980469 161.570312 236.867188 C 159.34375 237.433594 156.8125 238.164062 153.933594 239.105469 C 146.875 241.40625 143.839844 243.359375 142.78125 244.890625 C 142.445312 245.378906 142.324219 245.914062 142.414062 246.5 C 141.304688 246.980469 140.296875 247.625 139.390625 248.4375 C 138.488281 249.246094 137.738281 250.175781 137.136719 251.230469 C 134.011719 256.78125 129.179688 275.644531 126.644531 282.769531 C 126.398438 283.464844 126.472656 284.125 126.859375 284.75 L 124.757812 286.300781 C 122.707031 287.828125 120.589844 289.433594 120.214844 289.742188 C 119.8125 290.074219 120.097656 290.535156 120.386719 290.75 C 120.3125 290.785156 119.816406 291.140625 119.085938 291.6875 L 116.3125 293.785156 C 114.28125 295.339844 112.183594 296.980469 111.816406 297.292969 C 111.742188 297.355469 111.6875 297.433594 111.65625 297.523438 C 110.5 297.746094 108.925781 298.085938 108.636719 298.355469 C 108.324219 298.703125 108.113281 299.101562 108 299.558594 C 108 299.558594 111.917969 297.371094 112.660156 299.046875 C 113.402344 300.722656 112.015625 303.910156 112.015625 303.910156 C 112.015625 303.910156 113.101562 303.832031 113.292969 302.925781 C 113.503906 301.976562 113.628906 301.015625 113.671875 300.042969 C 113.882812 300.140625 114.066406 300.101562 114.222656 299.929688 L 118.136719 295.816406 L 120.519531 293.300781 C 121.140625 292.636719 121.558594 292.191406 121.601562 292.121094 C 121.777344 292.429688 122.207031 292.773438 122.582031 292.414062 L 126.554688 288.355469 L 128.972656 285.867188 C 130.125 285.773438 131.15625 285.363281 132.058594 284.640625 C 133.269531 283.703125 135.214844 276.917969 135.644531 275.449219 C 136.671875 271.953125 137.605469 264.160156 139 257.1875 C 140.066406 251.859375 141.976562 249.894531 143.527344 248.632812 C 143.640625 248.75 143.761719 248.855469 143.890625 248.953125 C 144.152344 249.140625 144.445312 249.246094 144.769531 249.261719 C 145.09375 249.277344 145.394531 249.203125 145.675781 249.039062 C 148.222656 247.585938 153.054688 246.601562 158.003906 245.8125 C 158.171875 245.324219 158.332031 244.832031 158.507812 244.339844 Z M 165.253906 205.054688 L 168.792969 205.976562 C 169.390625 204.828125 170.058594 203.617188 170.796875 202.332031 C 169.429688 201.34375 168.324219 200.117188 167.488281 198.648438 L 166.570312 198.480469 C 166.230469 198.425781 165.929688 198.507812 165.667969 198.726562 C 163.996094 196.097656 161.878906 193.890625 159.324219 192.109375 C 155.304688 189.304688 143.980469 182.398438 140.070312 178.214844 C 139.777344 177.90625 139.316406 177.972656 138.855469 178.238281 C 138.277344 174.007812 135.054688 150.9375 135.054688 150.9375 C 135.054688 150.9375 134.140625 148.480469 132.515625 148.398438 C 132.378906 148.394531 132.242188 148.398438 132.101562 148.410156 C 132.097656 148.339844 132.078125 148.269531 132.046875 148.207031 C 132.023438 148.167969 131.539062 147.753906 130.808594 147.15625 L 128.105469 144.96875 C 126.109375 143.371094 124.015625 141.730469 123.625 141.445312 C 123.203125 141.136719 122.828125 141.53125 122.695312 141.867188 C 122.640625 141.800781 122.171875 141.410156 121.457031 140.84375 L 118.726562 138.6875 C 116.710938 137.117188 114.59375 135.5 114.195312 135.222656 C 114.117188 135.167969 114.03125 135.136719 113.933594 135.128906 C 113.425781 134.066406 112.699219 132.625 112.363281 132.417969 C 111.949219 132.203125 111.507812 132.097656 111.039062 132.105469 C 111.039062 132.105469 114.144531 135.34375 112.710938 136.484375 C 111.277344 137.625 107.84375 137.085938 107.84375 137.085938 C 107.84375 137.085938 108.191406 138.121094 109.121094 138.078125 C 110.089844 138.039062 111.054688 137.917969 112.003906 137.714844 C 111.964844 137.941406 112.046875 138.109375 112.253906 138.214844 L 117.222656 140.964844 L 120.257812 142.636719 C 121.054688 143.074219 121.589844 143.363281 121.671875 143.386719 C 121.417969 143.636719 121.191406 144.136719 121.636719 144.40625 C 122.054688 144.644531 124.351562 145.957031 126.570312 147.226562 L 129.585938 148.9375 C 129.824219 149.074219 130.035156 149.1875 130.222656 149.292969 C 129.855469 149.789062 129.683594 150.5 129.871094 151.488281 C 130.472656 154.640625 134.59375 170.964844 136.015625 175.96875 C 136.304688 176.890625 136.511719 177.832031 136.644531 178.789062 C 136.699219 179.285156 136.953125 179.632812 137.414062 179.828125 C 137.3125 180.046875 137.261719 180.277344 137.273438 180.519531 C 137.480469 183.105469 138.457031 184.171875 144.988281 189.816406 C 157.074219 200.269531 161.066406 199.582031 163.941406 201.386719 C 164.183594 201.542969 164.441406 201.664062 164.714844 201.753906 L 164.375 203.496094 C 164.308594 203.828125 164.359375 204.140625 164.527344 204.4375 C 164.691406 204.734375 164.933594 204.941406 165.253906 205.054688 Z M 214.09375 245.101562 C 214.039062 244.960938 213.976562 244.828125 213.902344 244.699219 C 213.878906 244.660156 213.851562 244.621094 213.824219 244.585938 C 213.773438 244.503906 213.714844 244.421875 213.648438 244.347656 C 213.617188 244.308594 213.582031 244.269531 213.546875 244.230469 C 213.480469 244.164062 213.414062 244.101562 213.339844 244.039062 C 213.300781 244.007812 213.265625 243.976562 213.222656 243.945312 C 213.140625 243.882812 213.050781 243.828125 212.960938 243.777344 C 212.929688 243.761719 212.898438 243.738281 212.867188 243.722656 C 212.738281 243.660156 212.609375 243.605469 212.476562 243.566406 C 212.445312 243.554688 212.414062 243.550781 212.382812 243.542969 C 212.277344 243.515625 212.171875 243.492188 212.0625 243.476562 C 212.011719 243.472656 211.964844 243.46875 211.914062 243.464844 C 211.863281 243.464844 211.804688 243.453125 211.75 243.453125 C 211.703125 243.453125 211.65625 243.460938 211.613281 243.464844 C 211.566406 243.464844 211.535156 243.46875 211.496094 243.472656 C 211.351562 243.484375 211.210938 243.511719 211.074219 243.550781 C 209.917969 243.878906 208.644531 244.164062 207.300781 244.417969 C 206.707031 244.53125 206.105469 244.640625 205.484375 244.738281 C 204.476562 244.902344 203.4375 245.042969 202.386719 245.171875 C 201.289062 245.304688 200.179688 245.421875 199.066406 245.519531 C 197.542969 245.65625 196.019531 245.765625 194.539062 245.84375 L 194.378906 245.855469 C 191.824219 245.988281 189.40625 246.050781 187.351562 246.050781 C 185.691406 246.050781 183.796875 246.011719 181.78125 245.925781 C 180.773438 245.882812 179.738281 245.828125 178.6875 245.757812 C 177.109375 245.65625 175.5 245.523438 173.90625 245.355469 C 171.65625 245.117188 169.449219 244.808594 167.402344 244.421875 C 166.0625 244.167969 164.789062 243.878906 163.632812 243.550781 C 163.496094 243.511719 163.351562 243.488281 163.210938 243.472656 C 163.171875 243.46875 163.132812 243.46875 163.089844 243.464844 C 163.050781 243.460938 163 243.457031 162.953125 243.457031 C 162.898438 243.457031 162.84375 243.464844 162.789062 243.46875 C 162.734375 243.472656 162.691406 243.472656 162.640625 243.480469 C 162.53125 243.496094 162.425781 243.515625 162.316406 243.546875 C 162.289062 243.554688 162.257812 243.558594 162.226562 243.566406 C 162.09375 243.609375 161.960938 243.660156 161.835938 243.722656 C 161.804688 243.738281 161.773438 243.761719 161.742188 243.777344 C 161.648438 243.828125 161.5625 243.886719 161.476562 243.945312 C 161.4375 243.976562 161.398438 244.007812 161.359375 244.042969 C 161.289062 244.101562 161.21875 244.164062 161.15625 244.234375 C 161.117188 244.273438 161.082031 244.308594 161.050781 244.347656 C 160.988281 244.425781 160.929688 244.503906 160.875 244.585938 C 160.847656 244.625 160.820312 244.664062 160.796875 244.703125 C 160.722656 244.832031 160.660156 244.964844 160.609375 245.101562 C 160.570312 245.210938 160.535156 245.324219 160.496094 245.433594 C 160.183594 246.316406 159.871094 247.203125 159.582031 248.101562 C 159.253906 249.113281 158.941406 250.140625 158.648438 251.175781 C 158.421875 251.964844 158.546875 252.691406 159.03125 253.355469 C 159.308594 253.738281 159.667969 254.019531 160.109375 254.195312 C 160.324219 254.28125 160.570312 254.367188 160.828125 254.457031 C 161.144531 254.570312 161.488281 254.683594 161.875 254.796875 C 162.109375 254.867188 162.355469 254.933594 162.613281 255.003906 C 163.339844 255.199219 164.179688 255.394531 165.128906 255.589844 C 165.253906 255.613281 165.378906 255.640625 165.511719 255.664062 C 165.808594 255.722656 166.105469 255.78125 166.425781 255.839844 C 167.835938 256.089844 169.359375 256.316406 170.972656 256.507812 C 171.777344 256.605469 172.605469 256.695312 173.457031 256.777344 C 175.152344 256.941406 176.929688 257.074219 178.765625 257.175781 C 179.683594 257.226562 180.617188 257.265625 181.5625 257.300781 C 183.449219 257.371094 185.386719 257.402344 187.351562 257.402344 C 189.3125 257.402344 191.25 257.371094 193.140625 257.300781 C 194.085938 257.269531 195.015625 257.226562 195.933594 257.175781 C 197.769531 257.074219 199.546875 256.941406 201.246094 256.777344 C 202.09375 256.695312 202.921875 256.605469 203.730469 256.507812 C 205.34375 256.3125 206.863281 256.089844 208.273438 255.839844 C 209.410156 255.636719 210.402344 255.425781 211.265625 255.214844 C 212.398438 254.953125 213.503906 254.609375 214.589844 254.191406 C 215.1875 253.953125 215.625 253.546875 215.902344 252.96875 C 216.03125 252.691406 216.113281 252.402344 216.140625 252.101562 C 216.167969 251.785156 216.136719 251.476562 216.050781 251.175781 C 215.90625 250.65625 215.742188 250.148438 215.585938 249.636719 C 215.324219 248.777344 215.050781 247.921875 214.765625 247.074219 C 214.582031 246.527344 214.398438 245.976562 214.203125 245.433594 C 214.167969 245.324219 214.132812 245.210938 214.09375 245.101562 Z M 211.253906 238.132812 C 210.960938 237.480469 210.65625 236.84375 210.351562 236.207031 C 210.199219 235.886719 210.050781 235.558594 209.898438 235.242188 C 209.4375 234.296875 208.964844 233.367188 208.484375 232.457031 C 208.386719 232.269531 208.261719 232.097656 208.117188 231.9375 C 208.097656 231.917969 208.078125 231.890625 208.058594 231.871094 C 207.992188 231.8125 207.925781 231.757812 207.855469 231.707031 C 207.148438 232.558594 206.472656 233.3125 205.910156 233.910156 C 205.394531 234.460938 204.785156 234.878906 204.085938 235.167969 C 203.4375 235.4375 202.757812 235.574219 202.054688 235.574219 C 201.996094 235.574219 201.933594 235.574219 201.875 235.570312 C 198.6875 235.464844 195.375 235.382812 192.359375 235.339844 C 190.550781 235.3125 188.851562 235.296875 187.351562 235.296875 C 185.851562 235.296875 184.152344 235.3125 182.34375 235.339844 C 179.328125 235.382812 176.015625 235.464844 172.828125 235.570312 C 172.769531 235.570312 172.707031 235.574219 172.648438 235.574219 C 171.945312 235.574219 171.265625 235.4375 170.617188 235.167969 C 169.917969 234.878906 169.308594 234.460938 168.792969 233.910156 C 168.234375 233.3125 167.554688 232.558594 166.847656 231.707031 C 166.78125 231.761719 166.707031 231.808594 166.644531 231.871094 C 166.625 231.890625 166.605469 231.917969 166.585938 231.9375 C 166.441406 232.097656 166.320312 232.269531 166.21875 232.457031 C 165.578125 233.671875 164.960938 234.929688 164.351562 236.207031 C 164.261719 236.394531 164.175781 236.582031 164.085938 236.773438 C 163.875 237.226562 163.65625 237.671875 163.449219 238.128906 C 163.226562 238.617188 163.171875 239.125 163.273438 239.648438 C 163.378906 240.171875 163.625 240.617188 164.011719 240.984375 C 164.320312 241.273438 164.679688 241.46875 165.089844 241.574219 C 165.335938 241.636719 165.597656 241.699219 165.863281 241.761719 C 166.261719 241.855469 166.671875 241.945312 167.117188 242.039062 C 168.464844 242.316406 169.925781 242.5625 171.476562 242.773438 C 172.144531 242.867188 172.832031 242.949219 173.53125 243.027344 C 175.273438 243.226562 177.097656 243.382812 179.007812 243.503906 C 181.675781 243.671875 184.480469 243.757812 187.351562 243.757812 C 190.222656 243.757812 193.027344 243.671875 195.695312 243.503906 C 197.605469 243.386719 199.429688 243.226562 201.171875 243.027344 C 201.871094 242.949219 202.5625 242.867188 203.226562 242.773438 C 204.777344 242.5625 206.238281 242.316406 207.585938 242.039062 C 207.957031 241.960938 208.3125 241.886719 208.652344 241.808594 C 208.988281 241.730469 209.308594 241.652344 209.613281 241.570312 C 210.164062 241.433594 210.613281 241.136719 210.960938 240.683594 C 211.261719 240.289062 211.433594 239.839844 211.472656 239.339844 C 211.496094 238.996094 211.449219 238.664062 211.332031 238.339844 C 211.304688 238.269531 211.285156 238.199219 211.253906 238.132812 Z M 263.046875 297.523438 C 263.015625 297.433594 262.964844 297.355469 262.886719 297.292969 C 262.519531 296.980469 260.421875 295.339844 258.390625 293.785156 L 255.617188 291.6875 C 254.886719 291.140625 254.390625 290.785156 254.316406 290.75 C 254.605469 290.535156 254.890625 290.074219 254.488281 289.742188 C 254.113281 289.4375 251.996094 287.828125 249.945312 286.300781 L 247.84375 284.75 C 248.234375 284.125 248.304688 283.464844 248.058594 282.769531 C 245.523438 275.640625 240.691406 256.78125 237.566406 251.230469 C 236.964844 250.175781 236.214844 249.246094 235.308594 248.433594 C 234.40625 247.625 233.398438 246.980469 232.285156 246.5 C 232.375 245.914062 232.253906 245.378906 231.917969 244.890625 C 230.859375 243.359375 227.828125 241.40625 220.769531 239.105469 C 217.886719 238.164062 215.359375 237.433594 213.128906 236.867188 C 213.183594 236.980469 213.242188 237.097656 213.292969 237.210938 C 213.582031 237.851562 213.722656 238.519531 213.710938 239.21875 C 213.703125 239.917969 213.546875 240.585938 213.242188 241.214844 C 213.207031 241.289062 213.164062 241.355469 213.125 241.429688 C 213.835938 241.648438 214.460938 242.011719 215 242.523438 C 215.539062 243.035156 215.9375 243.640625 216.191406 244.339844 C 216.371094 244.832031 216.527344 245.324219 216.695312 245.816406 C 221.648438 246.601562 226.480469 247.585938 229.027344 249.039062 C 229.304688 249.203125 229.609375 249.277344 229.933594 249.261719 C 230.257812 249.246094 230.550781 249.144531 230.8125 248.953125 C 230.941406 248.855469 231.0625 248.75 231.175781 248.636719 C 232.726562 249.898438 234.636719 251.863281 235.703125 257.191406 C 237.097656 264.160156 238.027344 271.953125 239.058594 275.453125 C 239.488281 276.921875 241.433594 283.703125 242.644531 284.640625 C 243.546875 285.363281 244.574219 285.773438 245.730469 285.871094 L 248.144531 288.355469 L 252.121094 292.414062 C 252.496094 292.777344 252.921875 292.433594 253.101562 292.125 C 253.144531 292.195312 253.5625 292.640625 254.183594 293.304688 C 254.832031 293.988281 255.691406 294.894531 256.566406 295.820312 L 260.484375 299.929688 C 260.640625 300.101562 260.824219 300.140625 261.03125 300.046875 C 261.074219 301.015625 261.203125 301.976562 261.410156 302.929688 C 261.605469 303.835938 262.691406 303.914062 262.691406 303.914062 C 262.691406 303.914062 261.304688 300.726562 262.046875 299.050781 C 262.789062 297.375 266.703125 299.558594 266.703125 299.558594 C 266.59375 299.105469 266.378906 298.703125 266.066406 298.359375 C 265.78125 298.089844 264.203125 297.746094 263.046875 297.523438 Z M 293.238281 231.105469 C 292.878906 230.945312 291.277344 231.136719 290.113281 231.304688 C 290.054688 231.226562 289.976562 231.171875 289.886719 231.136719 C 289.433594 230.960938 286.921875 230.09375 284.492188 229.285156 L 281.1875 228.207031 C 280.335938 227.933594 279.753906 227.761719 279.652344 227.746094 C 279.851562 227.449219 279.972656 226.917969 279.484375 226.738281 C 279.03125 226.570312 276.507812 225.738281 274.066406 224.964844 L 272.351562 224.429688 C 272.238281 223.128906 270.929688 221.878906 270.929688 221.878906 C 270.929688 221.878906 247.996094 207.957031 246.824219 207.269531 C 246.800781 207.253906 246.777344 207.25 246.75 207.238281 C 245.167969 206.230469 241.59375 205.839844 233.5 208.9375 C 218.582031 214.652344 217.300781 218.492188 214.351562 220.175781 C 214.011719 220.351562 213.722656 220.585938 213.480469 220.882812 C 213.460938 220.710938 213.410156 220.546875 213.328125 220.394531 C 213.242188 220.246094 213.132812 220.113281 213 220.007812 C 212.867188 219.898438 212.714844 219.820312 212.550781 219.769531 C 212.382812 219.722656 212.214844 219.703125 212.042969 219.722656 L 209.601562 220.171875 C 210.109375 221.390625 210.535156 222.5 210.894531 223.523438 C 211.277344 224.644531 211.308594 225.777344 210.976562 226.914062 L 213.359375 226.296875 C 213.675781 226.179688 213.917969 225.972656 214.085938 225.679688 C 214.25 225.382812 214.300781 225.070312 214.234375 224.738281 L 213.726562 222.140625 C 214.257812 222.515625 214.832031 222.789062 215.457031 222.964844 C 218.71875 222.804688 221.804688 221.980469 224.710938 220.488281 C 229.09375 218.265625 240.851562 211.085938 246.375 209.632812 C 247.050781 210.085938 247.699219 210.570312 248.320312 211.089844 C 252.355469 214.375 265.714844 224.621094 268.375 226.417969 C 269.597656 227.246094 270.585938 227.164062 271.292969 226.613281 L 273.035156 227.496094 L 278.117188 230.035156 C 278.585938 230.253906 278.878906 229.792969 278.945312 229.441406 C 279.03125 229.503906 279.570312 229.789062 280.351562 230.203125 L 283.429688 231.804688 L 288.472656 234.414062 C 288.675781 234.523438 288.859375 234.5 289.027344 234.34375 C 289.382812 235.246094 289.816406 236.117188 290.324219 236.945312 C 290.804688 237.742188 291.855469 237.460938 291.855469 237.460938 C 291.855469 237.460938 289.503906 234.898438 289.660156 233.074219 C 289.8125 231.246094 294.230469 232.035156 294.230469 232.035156 C 293.976562 231.640625 293.648438 231.332031 293.238281 231.105469 Z M 266.859375 137.085938 C 266.859375 137.085938 263.425781 137.625 261.988281 136.484375 C 260.554688 135.339844 263.660156 132.105469 263.660156 132.105469 C 263.191406 132.097656 262.75 132.203125 262.335938 132.417969 C 262.003906 132.625 261.273438 134.0625 260.769531 135.128906 C 260.671875 135.136719 260.582031 135.167969 260.503906 135.222656 C 260.105469 135.5 257.992188 137.117188 255.972656 138.6875 L 253.242188 140.84375 C 252.53125 141.410156 252.058594 141.800781 252.007812 141.867188 C 251.871094 141.53125 251.496094 141.136719 251.078125 141.445312 C 250.683594 141.730469 248.59375 143.371094 246.597656 144.96875 C 245.605469 145.773438 244.628906 146.5625 243.890625 147.15625 C 243.15625 147.75 242.675781 148.164062 242.65625 148.207031 C 242.625 148.269531 242.605469 148.335938 242.597656 148.410156 C 242.460938 148.398438 242.320312 148.394531 242.183594 148.398438 C 240.558594 148.480469 239.648438 150.9375 239.648438 150.9375 C 239.648438 150.9375 236.421875 174.007812 235.847656 178.238281 C 235.382812 177.972656 234.921875 177.90625 234.632812 178.214844 C 230.71875 182.398438 219.398438 189.304688 215.378906 192.109375 C 212.820312 193.890625 210.707031 196.097656 209.035156 198.726562 C 208.769531 198.507812 208.46875 198.425781 208.128906 198.480469 L 207.214844 198.648438 C 206.375 200.117188 205.273438 201.34375 203.902344 202.332031 C 204.640625 203.617188 205.3125 204.828125 205.910156 205.976562 L 209.445312 205.054688 C 209.765625 204.9375 210.007812 204.734375 210.171875 204.4375 C 210.335938 204.144531 210.386719 203.828125 210.320312 203.496094 L 209.984375 201.757812 C 210.257812 201.667969 210.515625 201.542969 210.757812 201.386719 C 213.632812 199.585938 217.625 200.269531 229.710938 189.820312 C 236.242188 184.171875 237.214844 183.105469 237.425781 180.519531 C 237.433594 180.277344 237.386719 180.046875 237.28125 179.828125 C 237.742188 179.632812 238 179.289062 238.050781 178.789062 C 238.183594 177.832031 238.394531 176.894531 238.679688 175.972656 C 240.105469 170.96875 244.226562 154.644531 244.824219 151.492188 C 245.015625 150.5 244.84375 149.792969 244.476562 149.296875 C 244.664062 149.191406 244.871094 149.074219 245.113281 148.941406 L 248.128906 147.230469 L 253.0625 144.410156 C 253.503906 144.136719 253.28125 143.636719 253.027344 143.390625 C 253.105469 143.363281 253.640625 143.074219 254.441406 142.640625 L 257.476562 140.96875 L 262.445312 138.21875 C 262.648438 138.113281 262.734375 137.945312 262.695312 137.71875 C 263.644531 137.921875 264.605469 138.042969 265.578125 138.082031 C 266.507812 138.121094 266.859375 137.085938 266.859375 137.085938 Z M 217.6875 286.667969 C 217.667969 286.59375 217.632812 286.527344 217.605469 286.457031 C 217.566406 286.347656 217.519531 286.242188 217.464844 286.140625 C 217.425781 286.074219 217.378906 286.007812 217.332031 285.941406 C 217.273438 285.851562 217.203125 285.765625 217.128906 285.683594 C 217.074219 285.625 217.015625 285.566406 216.957031 285.511719 C 216.875 285.441406 216.792969 285.371094 216.703125 285.308594 C 216.632812 285.261719 216.566406 285.21875 216.496094 285.179688 C 216.398438 285.125 216.296875 285.082031 216.195312 285.039062 C 216.117188 285.011719 216.042969 284.980469 215.964844 284.957031 C 215.851562 284.929688 215.738281 284.90625 215.621094 284.894531 C 215.542969 284.882812 215.464844 284.871094 215.378906 284.867188 C 215.1875 284.859375 214.996094 284.871094 214.804688 284.90625 C 214.324219 285.003906 213.816406 285.097656 213.277344 285.191406 C 213.003906 285.238281 212.726562 285.285156 212.441406 285.332031 C 212.15625 285.378906 211.863281 285.421875 211.558594 285.46875 C 210.75 285.589844 209.910156 285.707031 209.035156 285.8125 C 208.164062 285.921875 207.261719 286.023438 206.332031 286.117188 C 205.402344 286.210938 204.445312 286.296875 203.464844 286.375 C 202.515625 286.453125 201.542969 286.523438 200.550781 286.585938 C 200.007812 286.617188 199.457031 286.652344 198.902344 286.679688 C 196.8125 286.792969 194.644531 286.878906 192.425781 286.925781 C 190.757812 286.964844 189.066406 286.980469 187.351562 286.980469 C 185.640625 286.980469 183.945312 286.960938 182.28125 286.925781 C 179.507812 286.863281 176.8125 286.75 174.25 286.589844 C 173.226562 286.527344 172.222656 286.453125 171.242188 286.375 C 170.257812 286.296875 169.304688 286.210938 168.375 286.117188 C 167.445312 286.023438 166.542969 285.921875 165.667969 285.8125 C 164.796875 285.707031 163.953125 285.589844 163.144531 285.46875 C 162.84375 285.421875 162.550781 285.378906 162.261719 285.332031 C 161.691406 285.238281 161.152344 285.144531 160.644531 285.050781 C 160.386719 285.003906 160.140625 284.953125 159.902344 284.90625 C 159.710938 284.871094 159.519531 284.859375 159.324219 284.867188 C 159.242188 284.871094 159.164062 284.882812 159.085938 284.894531 C 158.96875 284.90625 158.855469 284.929688 158.742188 284.960938 C 158.664062 284.980469 158.589844 285.011719 158.511719 285.039062 C 158.410156 285.082031 158.308594 285.128906 158.210938 285.179688 C 158.140625 285.21875 158.070312 285.265625 158.003906 285.308594 C 157.914062 285.371094 157.828125 285.441406 157.746094 285.515625 C 157.6875 285.570312 157.628906 285.625 157.574219 285.683594 C 157.5 285.765625 157.433594 285.851562 157.371094 285.945312 C 157.324219 286.011719 157.28125 286.074219 157.242188 286.140625 C 157.1875 286.242188 157.136719 286.351562 157.097656 286.460938 C 157.070312 286.53125 157.039062 286.597656 157.019531 286.671875 C 156.988281 286.796875 156.964844 286.925781 156.953125 287.054688 C 156.945312 287.121094 156.929688 287.183594 156.925781 287.25 C 156.917969 287.457031 156.9375 287.664062 156.980469 287.867188 C 157.21875 288.96875 157.484375 290.039062 157.777344 291.078125 C 158.070312 292.117188 158.382812 293.128906 158.71875 294.109375 C 158.816406 294.371094 158.953125 294.609375 159.128906 294.820312 C 159.246094 294.96875 159.375 295.097656 159.523438 295.214844 C 159.753906 295.40625 160.011719 295.546875 160.296875 295.644531 C 161.515625 296.023438 162.75 296.332031 164 296.570312 C 164.773438 296.726562 165.628906 296.875 166.566406 297.023438 C 167.039062 297.097656 167.527344 297.167969 168.039062 297.238281 C 169.0625 297.375 170.171875 297.507812 171.367188 297.628906 C 172.566406 297.75 173.855469 297.859375 175.230469 297.953125 C 175.921875 298.003906 176.632812 298.046875 177.371094 298.085938 C 180.3125 298.246094 183.632812 298.339844 187.355469 298.339844 C 195.734375 298.339844 202.070312 297.863281 206.675781 297.238281 C 207.699219 297.097656 208.636719 296.953125 209.492188 296.800781 C 211.160156 296.523438 212.800781 296.136719 214.417969 295.644531 C 214.890625 295.488281 215.277344 295.214844 215.585938 294.820312 C 215.761719 294.609375 215.898438 294.371094 215.996094 294.109375 C 216.332031 293.128906 216.644531 292.121094 216.9375 291.078125 C 217.230469 290.039062 217.496094 288.96875 217.734375 287.867188 C 217.78125 287.664062 217.796875 287.457031 217.789062 287.25 C 217.785156 287.183594 217.769531 287.121094 217.761719 287.054688 C 217.746094 286.925781 217.722656 286.796875 217.6875 286.667969 Z M 212.335938 301.152344 C 212.324219 301.101562 212.3125 301.054688 212.304688 301.007812 C 212.289062 300.949219 212.273438 300.890625 212.253906 300.832031 C 212.238281 300.785156 212.222656 300.738281 212.203125 300.695312 C 212.183594 300.636719 212.160156 300.582031 212.132812 300.53125 C 212.113281 300.484375 212.089844 300.441406 212.066406 300.398438 C 212.035156 300.34375 212.003906 300.292969 211.972656 300.242188 C 211.945312 300.203125 211.921875 300.160156 211.890625 300.121094 C 211.855469 300.074219 211.816406 300.027344 211.78125 299.980469 C 211.746094 299.941406 211.714844 299.90625 211.683594 299.871094 C 211.640625 299.824219 211.597656 299.785156 211.550781 299.742188 C 211.515625 299.710938 211.480469 299.675781 211.445312 299.644531 C 211.394531 299.605469 211.34375 299.570312 211.289062 299.535156 C 211.25 299.507812 211.214844 299.480469 211.175781 299.457031 C 211.117188 299.421875 211.058594 299.390625 210.996094 299.359375 C 210.957031 299.339844 210.921875 299.320312 210.882812 299.300781 C 210.808594 299.265625 210.730469 299.238281 210.648438 299.214844 C 210.621094 299.207031 210.597656 299.191406 210.570312 299.183594 C 210.460938 299.152344 210.347656 299.128906 210.234375 299.117188 C 210.203125 299.109375 210.167969 299.113281 210.136719 299.109375 C 210.054688 299.097656 209.96875 299.09375 209.882812 299.09375 C 209.75 299.09375 209.613281 299.105469 209.480469 299.128906 C 209.347656 299.148438 209.214844 299.171875 209.078125 299.191406 C 208.351562 299.308594 207.59375 299.417969 206.8125 299.519531 C 203.722656 299.921875 200.207031 300.222656 196.449219 300.40625 C 195.445312 300.457031 194.425781 300.5 193.390625 300.53125 C 191.421875 300.59375 189.402344 300.625 187.355469 300.625 C 185.304688 300.625 183.285156 300.59375 181.320312 300.53125 C 180.335938 300.5 179.367188 300.460938 178.410156 300.417969 C 174.59375 300.230469 171.027344 299.929688 167.898438 299.519531 C 167.113281 299.417969 166.355469 299.308594 165.628906 299.191406 C 165.496094 299.171875 165.359375 299.148438 165.230469 299.128906 C 165.09375 299.105469 164.960938 299.09375 164.824219 299.09375 C 164.738281 299.09375 164.652344 299.097656 164.566406 299.109375 C 164.535156 299.113281 164.503906 299.109375 164.472656 299.117188 C 164.359375 299.132812 164.246094 299.152344 164.136719 299.1875 C 164.113281 299.191406 164.09375 299.203125 164.074219 299.207031 C 163.988281 299.234375 163.902344 299.265625 163.820312 299.300781 C 163.785156 299.316406 163.75 299.335938 163.714844 299.355469 C 163.652344 299.386719 163.585938 299.417969 163.527344 299.457031 C 163.488281 299.480469 163.457031 299.503906 163.417969 299.53125 C 163.367188 299.570312 163.3125 299.605469 163.261719 299.648438 C 163.222656 299.675781 163.191406 299.710938 163.160156 299.738281 C 163.109375 299.78125 163.0625 299.824219 163.019531 299.871094 C 162.988281 299.90625 162.960938 299.941406 162.929688 299.976562 C 162.890625 300.023438 162.847656 300.074219 162.8125 300.125 C 162.785156 300.164062 162.757812 300.203125 162.734375 300.242188 C 162.699219 300.292969 162.667969 300.347656 162.636719 300.402344 C 162.617188 300.445312 162.59375 300.484375 162.574219 300.527344 C 162.546875 300.585938 162.523438 300.640625 162.5 300.699219 C 162.484375 300.742188 162.464844 300.789062 162.453125 300.832031 C 162.433594 300.894531 162.417969 300.953125 162.402344 301.011719 C 162.390625 301.058594 162.378906 301.105469 162.371094 301.152344 C 162.359375 301.214844 162.351562 301.277344 162.34375 301.339844 C 162.339844 301.386719 162.335938 301.4375 162.332031 301.484375 C 162.328125 301.546875 162.332031 301.613281 162.332031 301.679688 C 162.332031 301.726562 162.332031 301.773438 162.339844 301.820312 C 162.34375 301.890625 162.359375 301.957031 162.371094 302.027344 C 162.378906 302.070312 162.382812 302.117188 162.394531 302.160156 C 162.414062 302.238281 162.4375 302.3125 162.464844 302.386719 C 162.480469 302.425781 162.488281 302.464844 162.503906 302.5 C 162.546875 302.613281 162.601562 302.722656 162.664062 302.832031 C 163.316406 303.964844 163.992188 305.042969 164.695312 306.058594 C 165.398438 307.074219 166.117188 308.039062 166.855469 308.953125 C 166.996094 309.128906 167.160156 309.28125 167.34375 309.410156 C 167.527344 309.539062 167.722656 309.640625 167.933594 309.714844 C 168.324219 309.855469 168.765625 309.992188 169.265625 310.128906 C 169.765625 310.269531 170.316406 310.402344 170.921875 310.535156 C 171.832031 310.730469 172.859375 310.921875 174.003906 311.097656 C 174.765625 311.210938 175.578125 311.316406 176.445312 311.417969 C 176.914062 311.46875 177.398438 311.519531 177.894531 311.566406 C 180.617188 311.824219 183.777344 311.984375 187.351562 311.984375 C 195.0625 311.984375 200.847656 311.238281 204.453125 310.375 C 205.875 310.035156 207.117188 309.363281 208.183594 308.363281 C 208.53125 308.03125 208.847656 307.675781 209.132812 307.289062 C 209.640625 306.601562 210.136719 305.886719 210.625 305.144531 C 211.109375 304.402344 211.582031 303.632812 212.042969 302.832031 C 212.105469 302.726562 212.15625 302.613281 212.203125 302.5 C 212.21875 302.460938 212.226562 302.425781 212.238281 302.386719 C 212.265625 302.3125 212.292969 302.238281 212.3125 302.160156 C 212.320312 302.117188 212.328125 302.070312 212.335938 302.023438 C 212.347656 301.957031 212.359375 301.890625 212.367188 301.820312 C 212.371094 301.773438 212.371094 301.726562 212.375 301.675781 C 212.375 301.613281 212.378906 301.546875 212.375 301.480469 C 212.371094 301.433594 212.367188 301.386719 212.359375 301.335938 C 212.351562 301.273438 212.347656 301.214844 212.335938 301.152344 Z M 204.457031 312.707031 C 201.964844 313.234375 199.449219 313.605469 196.910156 313.816406 C 196.449219 313.859375 195.992188 313.898438 195.542969 313.929688 C 193.753906 314.070312 192.082031 314.152344 190.722656 314.199219 C 188.851562 314.265625 187.566406 314.269531 187.351562 314.269531 C 187.273438 314.269531 187.054688 314.269531 186.714844 314.265625 C 186.464844 314.265625 186.144531 314.257812 185.765625 314.25 C 185.515625 314.246094 185.238281 314.238281 184.941406 314.230469 C 184.640625 314.222656 184.320312 314.214844 183.980469 314.199219 L 183.457031 314.179688 C 183.105469 314.167969 182.738281 314.152344 182.355469 314.132812 C 182.152344 314.121094 181.945312 314.113281 181.730469 314.101562 C 181.328125 314.078125 180.90625 314.054688 180.476562 314.023438 C 180.046875 313.996094 179.609375 313.964844 179.160156 313.929688 C 178.710938 313.894531 178.253906 313.859375 177.792969 313.816406 C 177.5625 313.796875 177.332031 313.773438 177.101562 313.75 C 175.707031 313.613281 174.285156 313.4375 172.90625 313.214844 C 172.449219 313.140625 171.996094 313.0625 171.550781 312.976562 C 171.109375 312.890625 170.671875 312.800781 170.246094 312.707031 C 170.578125 313.03125 170.90625 313.347656 171.234375 313.65625 C 171.890625 314.269531 172.550781 314.847656 173.203125 315.390625 C 173.53125 315.664062 173.859375 315.925781 174.183594 316.183594 C 175.25 317.019531 176.296875 317.757812 177.308594 318.417969 L 176.527344 320.578125 L 176.207031 321.453125 C 176.105469 321.738281 176.164062 321.988281 176.382812 322.199219 C 176.605469 322.40625 176.855469 322.453125 177.136719 322.332031 L 178.488281 321.753906 L 181.125 320.621094 C 182.132812 321.136719 183.164062 321.589844 184.222656 321.984375 C 185.230469 322.359375 186.277344 322.542969 187.351562 322.542969 C 188.429688 322.542969 189.472656 322.359375 190.484375 321.984375 C 191.542969 321.589844 192.574219 321.136719 193.582031 320.621094 L 196.21875 321.753906 L 197.570312 322.332031 C 197.847656 322.453125 198.101562 322.40625 198.320312 322.199219 C 198.542969 321.988281 198.601562 321.738281 198.496094 321.453125 L 198.179688 320.578125 L 197.394531 318.417969 C 199.941406 316.753906 202.296875 314.851562 204.457031 312.707031 Z M 215.519531 256.535156 C 215.40625 256.527344 215.292969 256.527344 215.175781 256.535156 C 215.128906 256.539062 215.082031 256.539062 215.035156 256.546875 C 214.867188 256.566406 214.703125 256.601562 214.546875 256.65625 C 214.375 256.714844 214.199219 256.773438 214.015625 256.832031 C 213.464844 257.003906 212.855469 257.179688 212.179688 257.347656 C 211.277344 257.574219 210.257812 257.796875 209.105469 258.011719 C 206.921875 258.417969 204.472656 258.757812 201.828125 259.019531 C 199.183594 259.28125 196.347656 259.472656 193.394531 259.582031 C 191.425781 259.65625 189.402344 259.691406 187.351562 259.691406 C 185.300781 259.691406 183.277344 259.652344 181.308594 259.582031 C 178.355469 259.472656 175.519531 259.28125 172.875 259.019531 C 170.230469 258.757812 167.78125 258.417969 165.597656 258.011719 C 164.785156 257.859375 164.042969 257.707031 163.359375 257.546875 C 163.070312 257.480469 162.789062 257.414062 162.523438 257.347656 C 162.074219 257.234375 161.652344 257.121094 161.257812 257.003906 C 160.863281 256.890625 160.496094 256.773438 160.15625 256.65625 C 160 256.601562 159.835938 256.566406 159.667969 256.546875 C 159.621094 256.539062 159.574219 256.539062 159.527344 256.535156 C 159.410156 256.527344 159.296875 256.527344 159.183594 256.535156 C 159.125 256.539062 159.070312 256.542969 159.015625 256.550781 C 158.894531 256.566406 158.78125 256.59375 158.664062 256.628906 C 158.625 256.640625 158.582031 256.648438 158.542969 256.660156 C 158.394531 256.714844 158.25 256.78125 158.109375 256.859375 C 158.082031 256.878906 158.054688 256.898438 158.027344 256.917969 C 157.921875 256.984375 157.820312 257.0625 157.722656 257.144531 C 157.683594 257.179688 157.644531 257.21875 157.605469 257.257812 C 157.53125 257.335938 157.457031 257.417969 157.390625 257.503906 C 157.355469 257.546875 157.320312 257.59375 157.289062 257.644531 C 157.226562 257.738281 157.171875 257.839844 157.121094 257.941406 C 157.097656 257.988281 157.074219 258.035156 157.054688 258.085938 C 156.988281 258.242188 156.9375 258.40625 156.90625 258.578125 C 156.71875 259.5625 156.550781 260.554688 156.402344 261.558594 C 156.253906 262.558594 156.125 263.570312 156.015625 264.589844 C 155.984375 264.871094 155.957031 265.15625 155.929688 265.4375 C 155.914062 265.582031 155.914062 265.726562 155.925781 265.867188 C 155.960938 266.371094 156.136719 266.820312 156.445312 267.21875 C 156.757812 267.617188 157.152344 267.890625 157.632812 268.046875 C 158.183594 268.226562 158.824219 268.410156 159.554688 268.589844 C 159.921875 268.679688 160.308594 268.769531 160.714844 268.859375 C 162.351562 269.214844 164.339844 269.558594 166.664062 269.863281 C 167.878906 270.023438 169.191406 270.171875 170.585938 270.308594 C 175.207031 270.753906 180.8125 271.046875 187.351562 271.046875 C 196.8125 271.046875 204.332031 270.4375 209.71875 269.628906 C 211.335938 269.386719 212.761719 269.125 213.988281 268.859375 C 215.214844 268.589844 216.246094 268.316406 217.070312 268.046875 C 217.484375 267.914062 217.835938 267.6875 218.128906 267.371094 C 218.632812 266.820312 218.847656 266.175781 218.777344 265.4375 C 218.75 265.15625 218.722656 264.871094 218.691406 264.585938 C 218.582031 263.570312 218.453125 262.558594 218.300781 261.558594 C 218.152344 260.554688 217.984375 259.5625 217.800781 258.574219 C 217.765625 258.40625 217.71875 258.242188 217.652344 258.085938 C 217.632812 258.035156 217.605469 257.988281 217.582031 257.941406 C 217.535156 257.839844 217.476562 257.738281 217.417969 257.644531 C 217.382812 257.59375 217.347656 257.546875 217.3125 257.5 C 217.246094 257.414062 217.175781 257.335938 217.097656 257.257812 C 217.058594 257.21875 217.019531 257.179688 216.980469 257.144531 C 216.886719 257.0625 216.785156 256.984375 216.679688 256.917969 C 216.652344 256.898438 216.625 256.878906 216.59375 256.859375 C 216.457031 256.78125 216.3125 256.714844 216.164062 256.660156 C 216.125 256.644531 216.082031 256.640625 216.039062 256.628906 C 215.925781 256.59375 215.8125 256.566406 215.695312 256.546875 C 215.632812 256.542969 215.578125 256.539062 215.519531 256.535156 Z M 219.0625 272.417969 C 219.027344 272.300781 218.988281 272.1875 218.9375 272.078125 C 218.90625 272.019531 218.871094 271.960938 218.839844 271.902344 C 218.785156 271.808594 218.726562 271.71875 218.660156 271.632812 C 218.617188 271.578125 218.570312 271.523438 218.527344 271.476562 C 218.453125 271.398438 218.378906 271.324219 218.296875 271.253906 C 218.246094 271.210938 218.191406 271.167969 218.140625 271.128906 C 218.046875 271.0625 217.953125 271.003906 217.851562 270.953125 C 217.800781 270.925781 217.746094 270.890625 217.691406 270.867188 C 217.5625 270.8125 217.429688 270.769531 217.292969 270.734375 C 217.261719 270.726562 217.226562 270.710938 217.191406 270.703125 C 216.808594 270.628906 216.425781 270.636719 216.046875 270.734375 C 215.714844 270.820312 215.363281 270.90625 214.992188 270.992188 C 214.253906 271.164062 213.433594 271.332031 212.527344 271.5 C 212.074219 271.582031 211.597656 271.660156 211.101562 271.742188 C 206.46875 272.449219 201.8125 272.902344 197.128906 273.105469 C 195.042969 273.207031 192.886719 273.277344 190.6875 273.3125 C 189.585938 273.328125 188.472656 273.335938 187.351562 273.335938 C 185.113281 273.335938 182.90625 273.300781 180.753906 273.234375 C 179.617188 273.195312 178.5 273.148438 177.398438 273.09375 C 172.773438 272.890625 168.175781 272.441406 163.601562 271.742188 C 162.109375 271.5 160.824219 271.25 159.710938 270.992188 C 159.34375 270.90625 158.992188 270.820312 158.660156 270.734375 C 158.457031 270.683594 158.25 270.65625 158.042969 270.652344 C 157.863281 270.652344 157.6875 270.667969 157.511719 270.703125 C 157.476562 270.710938 157.445312 270.726562 157.414062 270.734375 C 157.277344 270.769531 157.144531 270.8125 157.015625 270.867188 C 156.960938 270.890625 156.90625 270.925781 156.851562 270.953125 C 156.753906 271.003906 156.65625 271.0625 156.566406 271.128906 C 156.511719 271.167969 156.460938 271.210938 156.410156 271.253906 C 156.328125 271.324219 156.25 271.398438 156.179688 271.476562 C 156.132812 271.527344 156.085938 271.578125 156.046875 271.632812 C 155.980469 271.71875 155.917969 271.808594 155.867188 271.902344 C 155.832031 271.960938 155.796875 272.019531 155.769531 272.078125 C 155.71875 272.1875 155.675781 272.300781 155.640625 272.417969 C 155.625 272.472656 155.601562 272.527344 155.589844 272.585938 C 155.542969 272.769531 155.523438 272.953125 155.519531 273.136719 C 155.511719 274.300781 155.527344 275.4375 155.574219 276.542969 C 155.617188 277.652344 155.683594 278.738281 155.773438 279.800781 C 155.839844 280.597656 156.203125 281.222656 156.867188 281.675781 C 157.078125 281.816406 157.304688 281.921875 157.550781 281.992188 C 157.734375 282.042969 157.933594 282.097656 158.140625 282.15625 C 158.761719 282.320312 159.492188 282.488281 160.34375 282.660156 C 160.910156 282.773438 161.53125 282.890625 162.210938 283.003906 C 162.890625 283.117188 163.628906 283.230469 164.433594 283.34375 C 165.996094 283.5625 167.675781 283.753906 169.449219 283.921875 C 174.773438 284.421875 180.953125 284.691406 187.351562 284.691406 C 193.75 284.691406 199.929688 284.421875 205.253906 283.921875 C 207.027344 283.753906 208.707031 283.5625 210.269531 283.34375 C 211.464844 283.175781 212.519531 283.007812 213.445312 282.835938 C 214.0625 282.722656 214.625 282.609375 215.136719 282.496094 C 215.648438 282.386719 216.109375 282.273438 216.523438 282.164062 C 216.730469 282.109375 216.929688 282.058594 217.113281 282.003906 C 217.546875 281.878906 217.921875 281.65625 218.234375 281.328125 C 218.550781 281.003906 218.761719 280.621094 218.867188 280.183594 C 218.898438 280.054688 218.917969 279.929688 218.929688 279.800781 C 219.109375 277.675781 219.195312 275.457031 219.183594 273.140625 C 219.179688 272.953125 219.15625 272.769531 219.113281 272.585938 C 219.101562 272.527344 219.078125 272.472656 219.0625 272.417969 Z M 203.515625 218.550781 C 203.007812 219.097656 202.414062 219.519531 201.734375 219.816406 C 201.050781 220.113281 200.339844 220.261719 199.59375 220.265625 C 197.886719 220.261719 196.46875 220.25 194.980469 220.238281 C 192.898438 220.222656 190.683594 220.207031 187.351562 220.207031 C 184.019531 220.207031 181.804688 220.222656 179.722656 220.238281 C 178.234375 220.25 176.816406 220.261719 175.097656 220.265625 C 174.355469 220.261719 173.644531 220.113281 172.964844 219.816406 C 172.285156 219.515625 171.691406 219.097656 171.1875 218.550781 C 170.6875 218.011719 169.988281 217.222656 169.253906 216.304688 C 168.777344 217.335938 168.34375 218.296875 167.949219 219.1875 C 167.738281 219.671875 167.539062 220.132812 167.351562 220.582031 C 166.929688 221.582031 166.5625 222.5 166.246094 223.355469 C 166.128906 223.664062 166.019531 223.964844 165.917969 224.261719 C 165.746094 224.753906 165.691406 225.261719 165.753906 225.78125 C 165.816406 226.300781 165.992188 226.777344 166.28125 227.214844 C 166.375 227.363281 166.488281 227.511719 166.589844 227.65625 C 166.800781 227.964844 167.007812 228.273438 167.230469 228.578125 C 167.328125 228.710938 167.4375 228.835938 167.535156 228.96875 C 168.128906 229.746094 168.75 230.511719 169.375 231.226562 C 169.726562 231.628906 170.082031 232.015625 170.421875 232.382812 C 170.570312 232.539062 170.730469 232.675781 170.90625 232.796875 C 170.964844 232.839844 171.03125 232.867188 171.09375 232.902344 C 171.210938 232.976562 171.332031 233.042969 171.460938 233.101562 C 171.539062 233.132812 171.621094 233.148438 171.699219 233.175781 C 171.820312 233.21875 171.941406 233.253906 172.066406 233.28125 C 172.152344 233.296875 172.246094 233.296875 172.332031 233.308594 C 172.4375 233.324219 172.542969 233.335938 172.648438 233.339844 C 172.683594 233.339844 172.71875 233.339844 172.753906 233.339844 C 174.203125 233.292969 175.625 233.25 176.992188 233.214844 C 177.679688 233.199219 178.351562 233.179688 179.007812 233.167969 C 179.417969 233.160156 179.824219 233.148438 180.21875 233.140625 C 183.003906 233.089844 185.457031 233.0625 187.351562 233.0625 C 188.324219 233.0625 189.445312 233.070312 190.683594 233.082031 C 191.097656 233.089844 191.523438 233.09375 191.960938 233.101562 C 193.128906 233.117188 194.378906 233.140625 195.695312 233.167969 C 197.664062 233.210938 199.773438 233.265625 201.949219 233.339844 C 201.984375 233.339844 202.019531 233.339844 202.054688 233.339844 C 202.160156 233.332031 202.265625 233.324219 202.367188 233.308594 C 202.457031 233.296875 202.546875 233.296875 202.636719 233.28125 C 202.757812 233.253906 202.882812 233.21875 203.003906 233.171875 C 203.082031 233.148438 203.164062 233.132812 203.238281 233.097656 C 203.367188 233.042969 203.492188 232.976562 203.609375 232.898438 C 203.671875 232.863281 203.738281 232.839844 203.792969 232.796875 C 203.972656 232.675781 204.132812 232.539062 204.277344 232.382812 C 204.625 232.015625 204.976562 231.625 205.328125 231.222656 C 205.953125 230.511719 206.574219 229.746094 207.167969 228.96875 C 207.265625 228.835938 207.371094 228.707031 207.46875 228.574219 C 207.695312 228.269531 207.902344 227.964844 208.113281 227.65625 C 208.214844 227.507812 208.324219 227.363281 208.421875 227.214844 C 208.707031 226.777344 208.882812 226.296875 208.949219 225.777344 C 209.011719 225.261719 208.957031 224.753906 208.785156 224.261719 C 208.679688 223.964844 208.574219 223.664062 208.457031 223.355469 C 208.140625 222.5 207.773438 221.578125 207.351562 220.582031 C 207.160156 220.132812 206.964844 219.671875 206.75 219.1875 C 206.5 218.617188 206.226562 218.011719 205.945312 217.386719 C 205.78125 217.03125 205.617188 216.671875 205.445312 216.304688 C 204.714844 217.222656 204.015625 218.011719 203.515625 218.550781 Z M 202.121094 203.714844 L 201.929688 203.386719 C 201.863281 203.410156 201.792969 203.4375 201.71875 203.464844 C 201.003906 203.714844 200.273438 203.921875 199.53125 204.085938 C 196.074219 204.867188 191.207031 205.285156 187.34375 205.300781 C 183.492188 205.285156 178.628906 204.867188 175.171875 204.085938 C 174.429688 203.921875 173.699219 203.714844 172.984375 203.464844 C 172.910156 203.4375 172.839844 203.410156 172.773438 203.386719 C 172.707031 203.496094 172.644531 203.605469 172.582031 203.714844 C 172.425781 203.996094 172.253906 204.285156 172.101562 204.554688 C 171.714844 205.242188 171.351562 205.90625 171.007812 206.546875 C 170.6875 207.152344 170.386719 207.738281 170.113281 208.304688 C 169.582031 209.371094 169.121094 210.46875 168.726562 211.59375 C 168.773438 211.679688 168.832031 211.769531 168.882812 211.859375 C 169.101562 212.234375 169.335938 212.617188 169.589844 213 C 169.820312 213.34375 170.070312 213.6875 170.324219 214.027344 C 171.105469 215.074219 171.941406 216.074219 172.832031 217.03125 C 172.976562 217.191406 173.136719 217.332031 173.3125 217.457031 C 173.847656 217.835938 174.445312 218.027344 175.105469 218.027344 C 176.386719 218.023438 177.503906 218.019531 178.613281 218.011719 L 179.277344 218.003906 L 180.625 217.996094 C 182.460938 217.984375 184.496094 217.96875 187.355469 217.96875 C 188.070312 217.96875 188.730469 217.96875 189.351562 217.96875 C 193.703125 217.980469 196.015625 218.019531 199.601562 218.027344 C 199.730469 218.019531 199.855469 218.007812 199.980469 217.988281 C 200.066406 217.976562 200.15625 217.976562 200.242188 217.960938 C 200.378906 217.925781 200.515625 217.882812 200.648438 217.828125 C 200.710938 217.804688 200.78125 217.792969 200.84375 217.765625 C 200.988281 217.695312 201.128906 217.617188 201.261719 217.527344 C 201.304688 217.5 201.351562 217.480469 201.394531 217.453125 C 201.570312 217.328125 201.730469 217.1875 201.875 217.03125 C 202.765625 216.074219 203.601562 215.070312 204.382812 214.027344 C 204.460938 213.917969 204.542969 213.8125 204.621094 213.703125 C 205.054688 213.109375 205.453125 212.492188 205.824219 211.855469 C 205.875 211.769531 205.929688 211.679688 205.980469 211.589844 C 205.351562 209.847656 204.589844 208.167969 203.695312 206.546875 C 203.21875 205.652344 202.683594 204.699219 202.121094 203.714844 Z M 204.792969 198.304688 C 206.121094 196.429688 207.109375 193.8125 207.621094 190.507812 C 207.746094 189.679688 207.84375 188.8125 207.90625 187.902344 C 207.921875 187.691406 207.929688 187.484375 207.925781 187.285156 C 207.917969 186.734375 207.824219 186.199219 207.648438 185.675781 C 207.425781 185.058594 207.085938 184.511719 206.632812 184.042969 C 206.175781 183.570312 205.644531 183.210938 205.035156 182.964844 C 204.542969 182.746094 204.03125 182.585938 203.507812 182.472656 C 203.34375 182.476562 203.183594 182.484375 203.019531 182.484375 C 202 182.476562 200.988281 182.40625 199.984375 182.273438 C 199.660156 182.292969 199.375 182.320312 199.09375 182.351562 C 199.035156 182.355469 198.980469 182.363281 198.925781 182.371094 C 198.65625 182.402344 198.394531 182.4375 198.140625 182.480469 L 198.074219 182.488281 C 197.804688 182.53125 197.546875 182.582031 197.296875 182.628906 L 197.140625 182.660156 C 196.898438 182.707031 196.667969 182.753906 196.453125 182.804688 L 196.371094 182.820312 C 196.164062 182.867188 195.96875 182.914062 195.789062 182.957031 C 195.761719 182.964844 195.734375 182.96875 195.707031 182.976562 C 195.503906 183.023438 195.320312 183.070312 195.160156 183.109375 C 195.015625 183.144531 194.886719 183.175781 194.78125 183.195312 C 193.410156 183.488281 192.140625 183.714844 190.921875 183.871094 C 190.3125 183.949219 189.714844 184.011719 189.121094 184.050781 C 188.523438 184.089844 187.9375 184.113281 187.347656 184.113281 C 186.761719 184.113281 186.171875 184.089844 185.578125 184.050781 C 184.984375 184.011719 184.386719 183.949219 183.777344 183.871094 C 182.554688 183.714844 181.289062 183.488281 179.929688 183.199219 C 179.8125 183.175781 179.683594 183.144531 179.539062 183.109375 L 178.992188 182.976562 L 178.90625 182.957031 C 178.726562 182.914062 178.53125 182.867188 178.328125 182.820312 L 178.246094 182.804688 C 178.03125 182.753906 177.796875 182.707031 177.558594 182.660156 L 177.402344 182.628906 C 177.152344 182.582031 176.890625 182.53125 176.617188 182.488281 L 176.558594 182.480469 C 176.304688 182.441406 176.039062 182.402344 175.769531 182.371094 C 175.714844 182.363281 175.660156 182.355469 175.605469 182.351562 C 175.324219 182.316406 175.035156 182.292969 174.742188 182.273438 C 173.726562 182.402344 172.707031 182.472656 171.679688 182.484375 C 171.515625 182.484375 171.355469 182.476562 171.191406 182.472656 C 168.714844 183.003906 166.832031 184.492188 166.773438 187.285156 C 166.769531 187.484375 166.777344 187.6875 166.792969 187.898438 C 166.855469 188.808594 166.953125 189.679688 167.078125 190.503906 C 167.589844 193.808594 168.578125 196.429688 169.90625 198.304688 C 170.140625 198.628906 170.390625 198.9375 170.65625 199.230469 C 170.757812 199.34375 170.859375 199.460938 170.964844 199.570312 C 171.152344 199.753906 171.339844 199.929688 171.539062 200.09375 C 171.664062 200.199219 171.792969 200.289062 171.921875 200.386719 C 172.1875 200.585938 172.46875 200.765625 172.761719 200.929688 C 172.933594 201.023438 173.113281 201.105469 173.292969 201.183594 C 173.332031 201.199219 173.367188 201.222656 173.40625 201.238281 C 173.558594 201.300781 173.726562 201.363281 173.90625 201.421875 L 173.976562 201.445312 C 174.703125 201.679688 175.441406 201.867188 176.191406 202.015625 C 178.226562 202.410156 180.277344 202.6875 182.34375 202.84375 C 183.015625 202.898438 183.691406 202.941406 184.363281 202.976562 C 185.039062 203.011719 185.710938 203.035156 186.371094 203.050781 C 186.699219 203.054688 187.027344 203.058594 187.347656 203.0625 C 187.671875 203.0625 188 203.054688 188.328125 203.050781 C 188.988281 203.035156 189.660156 203.011719 190.335938 202.976562 C 191.007812 202.945312 191.683594 202.898438 192.355469 202.84375 C 192.691406 202.816406 193.023438 202.789062 193.355469 202.753906 C 194.675781 202.628906 195.953125 202.464844 197.113281 202.273438 C 197.601562 202.191406 198.0625 202.105469 198.503906 202.015625 C 198.851562 201.945312 199.183594 201.871094 199.492188 201.796875 C 199.726562 201.738281 199.953125 201.679688 200.164062 201.617188 C 200.363281 201.5625 200.542969 201.503906 200.71875 201.445312 C 200.742188 201.4375 200.765625 201.429688 200.789062 201.421875 C 200.96875 201.363281 201.136719 201.300781 201.289062 201.238281 C 201.328125 201.222656 201.363281 201.199219 201.402344 201.183594 C 201.582031 201.105469 201.761719 201.023438 201.9375 200.929688 C 202.230469 200.765625 202.507812 200.585938 202.773438 200.386719 C 202.902344 200.289062 203.035156 200.199219 203.160156 200.09375 C 203.355469 199.929688 203.546875 199.753906 203.730469 199.570312 C 203.835938 199.460938 203.9375 199.34375 204.039062 199.230469 C 204.308594 198.9375 204.558594 198.628906 204.792969 198.304688 Z M 271.027344 55.585938 C 271.242188 55.625 271.457031 55.621094 271.667969 55.570312 C 271.871094 55.527344 272.058594 55.449219 272.230469 55.335938 C 272.402344 55.222656 272.550781 55.085938 272.671875 54.917969 C 272.792969 54.75 272.882812 54.570312 272.9375 54.371094 C 272.992188 54.171875 273.011719 53.96875 272.992188 53.761719 C 272.976562 53.558594 272.921875 53.359375 272.828125 53.175781 C 272.738281 52.988281 272.617188 52.824219 272.46875 52.683594 C 272.320312 52.542969 272.148438 52.433594 271.957031 52.351562 C 271.765625 52.273438 271.570312 52.230469 271.363281 52.222656 C 270.339844 52.1875 269.320312 52.222656 268.304688 52.320312 C 267.730469 52.359375 267.164062 52.429688 266.597656 52.535156 C 266.078125 52.625 265.625 52.675781 265.28125 52.773438 C 265.535156 52.414062 265.664062 51.96875 264.617188 52.089844 C 264.367188 52.117188 264.070312 52.160156 263.742188 52.214844 C 262.597656 52.4375 261.480469 52.75 260.386719 53.160156 C 259.808594 53.347656 259.269531 53.605469 258.789062 53.816406 L 258.117188 54.117188 L 257.582031 54.402344 C 257.730469 53.992188 257.738281 53.53125 256.761719 53.914062 C 256.484375 54.019531 256.214844 54.136719 255.949219 54.269531 C 255.511719 54.488281 255.011719 54.761719 254.496094 55.054688 C 253.992188 55.371094 253.46875 55.71875 252.964844 56.058594 C 252.476562 56.414062 252.011719 56.78125 251.601562 57.101562 C 251.1875 57.421875 250.855469 57.742188 250.589844 57.972656 C 250.632812 57.542969 250.527344 57.097656 249.667969 57.691406 C 249.460938 57.832031 249.238281 58.03125 248.988281 58.242188 C 247.34375 59.652344 245.882812 61.230469 244.597656 62.976562 C 244.554688 62.546875 244.359375 62.132812 243.644531 62.875 C 243.480469 63.058594 243.289062 63.28125 243.085938 63.53125 L 244.332031 64.699219 L 243.078125 63.527344 C 241.746094 65.207031 240.570312 66.988281 239.558594 68.875 C 239.453125 68.460938 239.199219 68.078125 238.601562 68.90625 C 238.464844 69.105469 238.308594 69.355469 238.140625 69.628906 L 240.925781 71.609375 C 241.121094 71.375 241.292969 71.15625 241.429688 70.96875 C 242.023438 70.210938 241.597656 70.066406 241.167969 70.074219 C 242.101562 69.109375 244.273438 67.074219 245.585938 65.875 C 245.800781 65.664062 246 65.472656 246.160156 65.308594 C 246.84375 64.652344 246.449219 64.445312 246.023438 64.390625 C 247.070312 63.5625 249.519531 61.914062 251.015625 61.003906 C 251.265625 60.839844 251.484375 60.675781 251.675781 60.5625 C 252.464844 60.058594 252.117188 59.773438 251.714844 59.640625 C 252.019531 59.503906 252.398438 59.304688 252.847656 59.113281 L 254.308594 58.492188 L 255.863281 57.910156 C 256.375 57.746094 256.855469 57.585938 257.261719 57.4375 C 257.535156 57.324219 257.796875 57.261719 258.007812 57.183594 C 258.882812 56.878906 258.621094 56.515625 258.265625 56.292969 L 258.8125 56.179688 L 259.488281 56.078125 C 259.96875 56.007812 260.496094 55.902344 261.050781 55.859375 C 262.148438 55.722656 263.300781 55.675781 264.167969 55.613281 L 263.953125 53.910156 L 264.164062 55.605469 C 264.457031 55.597656 264.726562 55.585938 264.945312 55.570312 C 265.871094 55.5 265.714844 55.082031 265.429688 54.773438 C 265.757812 54.777344 266.1875 54.851562 266.671875 54.894531 C 267.152344 54.9375 267.691406 54.996094 268.242188 55.097656 C 269.214844 55.222656 270.214844 55.445312 271.027344 55.585938 Z M 238.132812 69.621094 C 237.039062 71.445312 236.09375 73.34375 235.285156 75.3125 C 235.136719 74.90625 234.84375 74.558594 234.347656 75.4375 C 234.222656 75.644531 234.089844 75.902344 233.953125 76.191406 C 233.046875 78.101562 232.265625 80.0625 231.609375 82.074219 C 231.429688 81.683594 231.109375 81.359375 230.683594 82.265625 C 230.582031 82.484375 230.46875 82.75 230.347656 83.042969 C 229.585938 85.007812 228.929688 87.007812 228.386719 89.042969 C 228.1875 88.664062 227.847656 88.355469 227.46875 89.285156 C 227.378906 89.507812 227.28125 89.777344 227.179688 90.074219 C 226.871094 90.976562 226.496094 92.082031 226.152344 93.171875 C 225.988281 93.71875 225.824219 94.25 225.679688 94.722656 C 225.535156 95.199219 225.363281 95.597656 225.257812 95.914062 C 225.085938 95.53125 224.765625 95.210938 224.332031 96.066406 C 224.226562 96.273438 224.109375 96.523438 223.984375 96.800781 L 225.480469 97.621094 L 223.976562 96.796875 C 223.785156 97.203125 223.597656 97.691406 223.367188 98.191406 L 222.636719 99.722656 C 222.402344 100.242188 222.171875 100.746094 221.964844 101.199219 C 221.738281 101.636719 221.539062 102.027344 221.386719 102.320312 C 221.265625 101.914062 220.992188 101.558594 220.453125 102.347656 C 220.324219 102.539062 220.175781 102.769531 220.015625 103.03125 L 222.765625 105.0625 C 222.96875 104.8125 223.152344 104.582031 223.296875 104.386719 C 223.90625 103.566406 223.464844 103.445312 223.035156 103.472656 C 223.273438 103.222656 223.589844 102.894531 223.933594 102.511719 L 224.996094 101.199219 L 226.101562 99.789062 C 226.449219 99.320312 226.730469 98.847656 226.988281 98.449219 C 227.152344 98.175781 227.300781 97.921875 227.421875 97.707031 C 227.921875 96.816406 227.464844 96.753906 227.039062 96.839844 C 227.242188 96.558594 227.527344 96.199219 227.804688 95.765625 L 228.683594 94.332031 C 229.296875 93.316406 229.945312 92.214844 230.335938 91.40625 C 230.46875 91.128906 230.59375 90.875 230.6875 90.660156 C 231.09375 89.769531 230.644531 89.730469 230.230469 89.839844 C 230.933594 88.683594 232.53125 86.121094 233.433594 84.539062 L 231.886719 83.789062 L 233.425781 84.535156 C 233.582031 84.269531 233.714844 84.023438 233.824219 83.8125 C 234.273438 82.949219 233.824219 82.882812 233.410156 82.972656 L 236.925781 77.898438 C 237.085938 77.636719 237.238281 77.402344 237.363281 77.207031 C 237.875 76.382812 237.4375 76.285156 237.011719 76.339844 C 237.847656 75.28125 239.777344 72.992188 240.929688 71.613281 Z M 220.417969 107.527344 L 221.691406 106.265625 C 221.894531 106.054688 222.089844 105.851562 222.277344 105.65625 L 222.769531 105.066406 L 220.007812 103.023438 C 219.890625 103.21875 219.765625 103.425781 219.632812 103.644531 L 219.195312 104.3125 C 218.902344 104.777344 218.589844 105.265625 218.285156 105.742188 C 217.996094 106.234375 217.675781 106.679688 217.394531 107.085938 L 216.683594 108.132812 C 216.613281 107.710938 216.390625 107.316406 215.761719 108.035156 C 215.617188 108.210938 215.421875 108.40625 215.222656 108.632812 L 216.152344 109.554688 L 215.21875 108.628906 C 214.453125 109.53125 213.347656 110.8125 212.414062 111.855469 C 212.050781 112.257812 211.71875 112.621094 211.441406 112.914062 C 211.351562 113.003906 211.261719 113.101562 211.183594 113.179688 C 211.183594 113.148438 211.179688 113.121094 211.179688 113.09375 C 211.15625 112.703125 210.972656 112.371094 210.289062 112.9375 L 209.667969 113.449219 L 209.792969 113.617188 L 209.664062 113.441406 C 209.640625 113.460938 209.617188 113.480469 209.59375 113.5 C 209.292969 113.328125 208.992188 113.15625 208.667969 112.972656 C 208.164062 112.6875 207.609375 112.378906 207.027344 112.054688 C 206.25 111.621094 205.417969 111.164062 204.566406 110.695312 C 204.140625 110.464844 203.707031 110.230469 203.28125 109.996094 L 202.636719 109.644531 C 201.445312 108.996094 200.277344 108.367188 199.230469 107.804688 L 197.914062 107.097656 C 197.421875 106.832031 196.976562 106.59375 196.597656 106.390625 C 195.691406 105.90625 195.136719 105.609375 195.136719 105.609375 C 194.398438 105.449219 193.65625 105.316406 192.914062 105.195312 C 192.363281 105.109375 191.8125 105.027344 191.261719 104.960938 C 190.613281 104.886719 189.960938 104.824219 189.308594 104.777344 C 188.65625 104.726562 188.003906 104.695312 187.347656 104.675781 C 186.695312 104.695312 186.042969 104.730469 185.390625 104.777344 C 184.738281 104.820312 184.085938 104.882812 183.4375 104.960938 C 182.882812 105.027344 182.335938 105.109375 181.785156 105.195312 C 181.039062 105.316406 180.300781 105.449219 179.5625 105.609375 C 179.5625 105.609375 179.140625 105.835938 178.433594 106.214844 C 178.0625 106.410156 177.613281 106.648438 177.109375 106.921875 L 175.792969 107.628906 C 174.664062 108.234375 173.375 108.929688 172.0625 109.644531 L 171.417969 109.996094 C 170.988281 110.230469 170.558594 110.464844 170.132812 110.695312 C 169.28125 111.164062 168.449219 111.621094 167.671875 112.054688 C 167.085938 112.378906 166.535156 112.6875 166.027344 112.972656 C 165.707031 113.15625 165.40625 113.328125 165.125 113.488281 C 165.089844 113.480469 165.058594 113.464844 165.035156 113.441406 L 164.90625 113.617188 L 165.027344 113.449219 L 164.40625 112.9375 C 163.722656 112.371094 163.539062 112.703125 163.519531 113.09375 C 163.519531 113.121094 163.515625 113.148438 163.515625 113.179688 C 163.4375 113.101562 163.347656 113.003906 163.257812 112.914062 C 162.976562 112.621094 162.648438 112.257812 162.285156 111.855469 C 161.347656 110.8125 160.246094 109.527344 159.480469 108.628906 L 158.546875 109.554688 L 159.476562 108.632812 C 159.277344 108.40625 159.082031 108.210938 158.933594 108.035156 C 158.308594 107.316406 158.082031 107.710938 158.015625 108.132812 L 157.304688 107.085938 C 157.023438 106.679688 156.703125 106.234375 156.414062 105.742188 C 156.109375 105.265625 155.796875 104.777344 155.5 104.3125 C 155.351562 104.082031 155.203125 103.859375 155.0625 103.644531 C 154.933594 103.425781 154.808594 103.21875 154.691406 103.023438 L 151.929688 105.066406 C 152.082031 105.25 152.246094 105.449219 152.417969 105.65625 L 153.007812 106.265625 L 154.277344 107.527344 C 154.695312 107.953125 155.140625 108.328125 155.539062 108.660156 L 156.550781 109.503906 C 156.121094 109.535156 155.703125 109.714844 156.40625 110.457031 C 156.527344 110.585938 156.65625 110.703125 156.792969 110.816406 C 156.875 110.890625 156.957031 110.960938 157.042969 111.039062 C 158.148438 112.007812 159.3125 112.890625 160.542969 113.691406 C 161.21875 114.140625 161.835938 114.523438 162.273438 114.757812 C 161.851562 114.851562 161.464844 115.09375 162.28125 115.71875 C 162.355469 115.777344 162.441406 115.835938 162.53125 115.894531 C 162.675781 115.992188 162.832031 116.089844 163 116.199219 C 163.398438 116.460938 169.609375 120.1875 169.890625 120.308594 C 166.90625 119.933594 163.96875 119.328125 161.078125 118.492188 C 160.765625 119.136719 160.453125 119.832031 160.140625 120.589844 C 159.964844 121.027344 159.785156 121.480469 159.605469 121.949219 C 158.894531 123.828125 158.199219 125.964844 157.558594 128.289062 C 157.074219 130.035156 156.621094 131.882812 156.210938 133.8125 C 156.074219 134.453125 155.941406 135.105469 155.816406 135.761719 C 155.5625 137.078125 155.332031 138.425781 155.125 139.796875 C 154.917969 141.164062 154.734375 142.554688 154.582031 143.957031 C 154.429688 145.359375 154.308594 146.773438 154.21875 148.195312 C 154.085938 150.324219 154.027344 152.460938 154.0625 154.582031 C 154.097656 156.699219 154.21875 158.796875 154.445312 160.847656 C 154.664062 162.859375 155 164.851562 155.453125 166.824219 C 155.519531 167.109375 155.601562 167.40625 155.695312 167.707031 C 155.707031 167.742188 155.714844 167.777344 155.726562 167.816406 C 155.816406 168.105469 155.921875 168.402344 156.035156 168.703125 C 156.054688 168.753906 156.074219 168.804688 156.09375 168.855469 C 156.207031 169.15625 156.335938 169.457031 156.476562 169.765625 C 156.496094 169.816406 156.523438 169.867188 156.546875 169.917969 C 156.691406 170.230469 156.847656 170.546875 157.019531 170.867188 C 157.039062 170.898438 157.058594 170.933594 157.078125 170.964844 C 157.257812 171.296875 157.449219 171.625 157.660156 171.957031 C 157.878906 172.300781 158.105469 172.628906 158.34375 172.953125 C 158.371094 172.992188 158.398438 173.03125 158.429688 173.070312 C 158.660156 173.378906 158.902344 173.683594 159.160156 173.984375 C 159.203125 174.03125 159.246094 174.082031 159.289062 174.128906 C 159.546875 174.425781 159.820312 174.714844 160.105469 175 C 160.152344 175.042969 160.195312 175.085938 160.242188 175.128906 C 160.539062 175.417969 160.847656 175.699219 161.175781 175.96875 C 161.207031 175.992188 161.234375 176.015625 161.265625 176.039062 C 161.601562 176.316406 161.949219 176.578125 162.316406 176.828125 C 162.332031 176.839844 162.347656 176.851562 162.363281 176.863281 C 162.730469 177.109375 163.113281 177.34375 163.511719 177.5625 C 163.566406 177.59375 163.621094 177.625 163.675781 177.65625 C 164.0625 177.867188 164.460938 178.058594 164.878906 178.242188 C 164.949219 178.273438 165.023438 178.300781 165.09375 178.332031 C 165.515625 178.507812 165.945312 178.667969 166.394531 178.808594 C 166.464844 178.832031 166.539062 178.851562 166.609375 178.875 C 167.078125 179.015625 167.554688 179.140625 168.054688 179.242188 C 168.097656 179.25 168.140625 179.253906 168.183594 179.261719 C 168.683594 179.363281 169.203125 179.441406 169.734375 179.496094 C 169.773438 179.5 169.8125 179.503906 169.855469 179.507812 C 170.390625 179.5625 170.949219 179.585938 171.515625 179.585938 C 171.609375 179.585938 171.699219 179.589844 171.789062 179.589844 C 172.300781 179.585938 172.828125 179.5625 173.367188 179.519531 C 173.472656 179.511719 173.582031 179.5 173.691406 179.488281 C 174.257812 179.4375 174.832031 179.367188 175.425781 179.265625 C 175.867188 179.191406 176.328125 179.121094 176.804688 179.054688 C 180.300781 178.574219 183.8125 178.328125 187.34375 178.304688 C 187.578125 178.304688 187.8125 178.3125 188.039062 178.3125 C 188.277344 178.316406 188.511719 178.316406 188.757812 178.324219 C 188.976562 178.328125 189.203125 178.335938 189.425781 178.34375 C 189.695312 178.351562 189.960938 178.359375 190.238281 178.371094 C 190.503906 178.382812 190.777344 178.398438 191.042969 178.414062 C 191.289062 178.425781 191.527344 178.4375 191.773438 178.453125 C 192.039062 178.46875 192.304688 178.488281 192.570312 178.507812 C 192.828125 178.527344 193.078125 178.542969 193.335938 178.5625 C 193.546875 178.578125 193.753906 178.601562 193.960938 178.617188 C 194.277344 178.644531 194.585938 178.671875 194.894531 178.699219 C 195.089844 178.71875 195.28125 178.742188 195.472656 178.761719 C 195.789062 178.796875 196.109375 178.828125 196.417969 178.867188 C 196.613281 178.886719 196.796875 178.914062 196.988281 178.9375 C 197.289062 178.976562 197.59375 179.015625 197.886719 179.058594 C 198.359375 179.125 198.820312 179.195312 199.261719 179.269531 C 199.859375 179.371094 200.433594 179.4375 201 179.492188 C 201.105469 179.503906 201.214844 179.515625 201.320312 179.523438 C 201.859375 179.566406 202.386719 179.589844 202.898438 179.59375 C 202.988281 179.59375 203.078125 179.589844 203.171875 179.589844 C 203.738281 179.585938 204.296875 179.5625 204.832031 179.511719 C 204.875 179.507812 204.914062 179.5 204.953125 179.496094 C 205.488281 179.441406 206.003906 179.363281 206.503906 179.265625 C 206.546875 179.257812 206.59375 179.25 206.632812 179.242188 C 207.132812 179.140625 207.609375 179.015625 208.074219 178.878906 C 208.148438 178.855469 208.222656 178.832031 208.296875 178.8125 C 208.742188 178.667969 209.171875 178.511719 209.589844 178.335938 C 209.667969 178.304688 209.742188 178.273438 209.816406 178.242188 C 210.230469 178.0625 210.628906 177.867188 211.011719 177.660156 C 211.070312 177.628906 211.128906 177.59375 211.1875 177.5625 C 211.578125 177.34375 211.960938 177.113281 212.320312 176.867188 C 212.34375 176.851562 212.363281 176.835938 212.386719 176.820312 C 212.742188 176.574219 213.085938 176.320312 213.410156 176.054688 C 213.449219 176.023438 213.484375 175.996094 213.519531 175.96875 C 213.839844 175.699219 214.148438 175.425781 214.441406 175.140625 C 214.488281 175.09375 214.539062 175.042969 214.589844 174.996094 C 214.871094 174.71875 215.140625 174.433594 215.394531 174.140625 C 215.441406 174.085938 215.488281 174.03125 215.535156 173.976562 C 215.789062 173.683594 216.03125 173.382812 216.257812 173.078125 C 216.289062 173.035156 216.324219 172.988281 216.355469 172.941406 C 216.589844 172.625 216.8125 172.304688 217.015625 171.980469 C 217.023438 171.96875 217.03125 171.953125 217.039062 171.941406 C 217.242188 171.621094 217.433594 171.300781 217.609375 170.976562 C 217.628906 170.9375 217.652344 170.898438 217.671875 170.863281 C 217.839844 170.550781 217.996094 170.234375 218.144531 169.925781 C 218.167969 169.871094 218.195312 169.816406 218.21875 169.761719 C 218.355469 169.457031 218.480469 169.160156 218.597656 168.863281 C 218.617188 168.808594 218.636719 168.753906 218.65625 168.703125 C 218.769531 168.402344 218.875 168.109375 218.960938 167.820312 C 218.976562 167.78125 218.984375 167.746094 218.996094 167.707031 C 219.085938 167.40625 219.167969 167.113281 219.234375 166.828125 C 220.886719 159.777344 220.945312 151.675781 220.109375 143.960938 C 219.957031 142.558594 219.773438 141.167969 219.566406 139.800781 C 219.359375 138.429688 219.128906 137.082031 218.875 135.765625 C 218.746094 135.109375 218.617188 134.457031 218.476562 133.816406 C 218.066406 131.886719 217.617188 130.039062 217.132812 128.292969 C 216.488281 125.96875 215.796875 123.832031 215.085938 121.953125 C 214.90625 121.484375 214.726562 121.03125 214.546875 120.59375 C 214.238281 119.835938 213.921875 119.144531 213.609375 118.496094 C 210.71875 119.320312 207.78125 119.933594 204.800781 120.332031 C 205.078125 120.191406 211.289062 116.464844 211.695312 116.210938 C 211.859375 116.09375 212.015625 115.996094 212.160156 115.898438 C 212.25 115.839844 212.339844 115.78125 212.410156 115.722656 C 213.226562 115.097656 212.839844 114.855469 212.417969 114.761719 C 212.855469 114.527344 213.476562 114.144531 214.148438 113.695312 C 215.378906 112.894531 216.546875 112.011719 217.652344 111.046875 C 217.734375 110.964844 217.816406 110.894531 217.898438 110.820312 C 218.035156 110.707031 218.164062 110.585938 218.285156 110.460938 C 218.992188 109.714844 218.570312 109.535156 218.144531 109.507812 L 219.15625 108.664062 C 219.558594 108.328125 220.003906 107.953125 220.417969 107.527344 Z M 103.035156 55.570312 C 103.246094 55.621094 103.460938 55.625 103.675781 55.585938 C 104.488281 55.445312 105.488281 55.222656 106.460938 55.097656 C 107.007812 54.996094 107.546875 54.945312 108.03125 54.898438 C 108.515625 54.847656 108.945312 54.78125 109.269531 54.773438 C 108.988281 55.082031 108.832031 55.5 109.753906 55.570312 C 109.976562 55.589844 110.246094 55.597656 110.539062 55.605469 L 110.75 53.910156 L 110.539062 55.613281 C 111.402344 55.675781 112.558594 55.722656 113.65625 55.859375 C 114.210938 55.898438 114.738281 56.007812 115.21875 56.078125 L 115.894531 56.179688 L 116.441406 56.292969 C 116.085938 56.519531 115.824219 56.878906 116.699219 57.183594 C 116.90625 57.261719 117.167969 57.324219 117.445312 57.425781 C 117.847656 57.585938 118.328125 57.746094 118.84375 57.910156 C 119.347656 58.097656 119.878906 58.296875 120.394531 58.492188 L 121.859375 59.109375 C 122.308594 59.300781 122.6875 59.503906 122.992188 59.636719 C 122.585938 59.769531 122.238281 60.054688 123.03125 60.558594 C 123.222656 60.675781 123.441406 60.835938 123.695312 60.992188 C 125.1875 61.910156 127.636719 63.5625 128.683594 64.390625 C 128.261719 64.441406 127.863281 64.648438 128.546875 65.304688 C 128.707031 65.472656 128.90625 65.660156 129.125 65.867188 C 130.433594 67.070312 132.609375 69.105469 133.539062 70.074219 C 133.113281 70.0625 132.683594 70.210938 133.277344 70.964844 C 133.414062 71.152344 133.585938 71.371094 133.78125 71.605469 L 136.566406 69.625 C 136.398438 69.351562 136.242188 69.105469 136.105469 68.902344 C 135.507812 68.078125 135.253906 68.457031 135.152344 68.875 C 134.136719 66.984375 132.964844 65.203125 131.628906 63.523438 L 130.375 64.699219 L 131.625 63.53125 C 131.417969 63.28125 131.226562 63.054688 131.0625 62.871094 C 130.351562 62.128906 130.152344 62.546875 130.109375 62.972656 C 128.824219 61.230469 127.363281 59.648438 125.722656 58.230469 C 125.46875 58.027344 125.246094 57.828125 125.035156 57.6875 C 124.179688 57.09375 124.074219 57.539062 124.117188 57.96875 C 123.851562 57.742188 123.519531 57.421875 123.105469 57.097656 C 122.695312 56.773438 122.230469 56.414062 121.738281 56.054688 C 121.238281 55.714844 120.714844 55.367188 120.210938 55.050781 C 119.691406 54.757812 119.191406 54.484375 118.757812 54.261719 L 118.554688 54.753906 L 118.753906 54.269531 C 118.492188 54.136719 118.21875 54.015625 117.945312 53.910156 C 116.964844 53.527344 116.972656 53.988281 117.121094 54.398438 L 116.582031 54.117188 L 115.914062 53.8125 C 115.433594 53.605469 114.894531 53.34375 114.316406 53.15625 C 113.222656 52.75 112.101562 52.433594 110.957031 52.203125 C 110.632812 52.160156 110.332031 52.117188 110.082031 52.085938 C 109.039062 51.964844 109.167969 52.410156 109.417969 52.773438 C 109.078125 52.675781 108.625 52.621094 108.105469 52.53125 C 107.539062 52.429688 106.96875 52.359375 106.398438 52.316406 C 105.378906 52.21875 104.363281 52.1875 103.339844 52.222656 C 103.132812 52.230469 102.933594 52.273438 102.742188 52.351562 C 102.550781 52.429688 102.378906 52.539062 102.230469 52.683594 C 102.078125 52.824219 101.957031 52.988281 101.867188 53.175781 C 101.777344 53.359375 101.722656 53.558594 101.703125 53.761719 C 101.683594 53.96875 101.703125 54.171875 101.757812 54.371094 C 101.8125 54.570312 101.902344 54.753906 102.023438 54.921875 C 102.148438 55.089844 102.296875 55.226562 102.46875 55.339844 C 102.644531 55.453125 102.832031 55.53125 103.035156 55.574219 Z M 151.40625 104.386719 C 151.554688 104.582031 151.734375 104.8125 151.941406 105.0625 L 154.6875 103.03125 C 154.53125 102.769531 154.382812 102.539062 154.25 102.347656 C 153.710938 101.558594 153.4375 101.914062 153.316406 102.320312 C 153.164062 102.027344 152.964844 101.636719 152.738281 101.199219 L 152.066406 99.722656 L 151.339844 98.191406 C 151.105469 97.691406 150.917969 97.199219 150.726562 96.792969 L 150.121094 97.125 L 150.71875 96.796875 C 150.597656 96.523438 150.480469 96.269531 150.375 96.066406 C 149.9375 95.210938 149.621094 95.53125 149.449219 95.914062 C 149.339844 95.597656 149.171875 95.195312 149.023438 94.722656 L 148.550781 93.171875 C 148.210938 92.082031 147.832031 90.976562 147.53125 90.070312 C 147.421875 89.777344 147.324219 89.507812 147.234375 89.28125 C 146.855469 88.355469 146.515625 88.664062 146.316406 89.042969 C 145.773438 87.007812 145.121094 85.007812 144.363281 83.039062 C 144.234375 82.75 144.121094 82.484375 144.019531 82.265625 C 143.59375 81.355469 143.273438 81.683594 143.09375 82.074219 C 142.433594 80.0625 141.65625 78.101562 140.757812 76.1875 C 140.613281 75.902344 140.480469 75.644531 140.359375 75.433594 C 139.855469 74.558594 139.566406 74.90625 139.417969 75.3125 C 138.609375 73.34375 137.664062 71.445312 136.570312 69.621094 L 133.773438 71.609375 C 134.921875 72.988281 136.855469 75.28125 137.691406 76.339844 C 137.269531 76.28125 136.828125 76.382812 137.339844 77.207031 L 137.785156 77.894531 C 138.816406 79.398438 140.53125 81.867188 141.292969 82.96875 C 140.878906 82.882812 140.433594 82.945312 140.878906 83.8125 C 140.984375 84.023438 141.121094 84.265625 141.277344 84.53125 L 142.816406 83.789062 L 141.269531 84.535156 C 142.171875 86.117188 143.765625 88.683594 144.472656 89.839844 C 144.058594 89.726562 143.613281 89.765625 144.015625 90.660156 C 144.109375 90.875 144.234375 91.128906 144.375 91.402344 C 144.757812 92.214844 145.40625 93.3125 146.019531 94.328125 L 146.898438 95.765625 C 147.175781 96.195312 147.460938 96.558594 147.664062 96.839844 C 147.238281 96.753906 146.78125 96.816406 147.28125 97.707031 C 147.402344 97.917969 147.550781 98.171875 147.722656 98.441406 C 147.96875 98.847656 148.253906 99.320312 148.601562 99.789062 L 149.707031 101.199219 L 150.769531 102.507812 C 151.117188 102.894531 151.433594 103.222656 151.667969 103.472656 C 151.238281 103.445312 150.796875 103.566406 151.40625 104.386719 Z M 151.40625 104.386719 "/></g></g></svg>