<svg xmlns="http://www.w3.org/2000/svg" xmlns:xlink="http://www.w3.org/1999/xlink" width="500" zoomAndPan="magnify" viewBox="0 0 375 374.999991" height="500" preserveAspectRatio="xMidYMid meet" version="1.2"><defs><clipPath id="a02a30a5e6"><path d="M 78.421875 63 L 296 63 L 296 313 L 78.421875 313 Z M 78.421875 63 "/></clipPath></defs><g id="dd080686b1"><g clip-rule="nonzero" clip-path="url(#a02a30a5e6)"><path style=" stroke:none;fill-rule:nonzero;fill:#2a424d;fill-opacity:1;" d="M 176.101562 192.546875 C 167.925781 195.277344 161.800781 200.277344 157.597656 206.773438 C 160.078125 193.789062 162.328125 180.757812 164.152344 167.707031 C 165.179688 177.851562 168.113281 188.40625 176.101562 192.546875 Z M 197.265625 192.546875 C 205.269531 188.425781 208.21875 177.835938 209.230469 167.683594 C 211.078125 180.757812 213.347656 193.789062 215.859375 206.789062 C 211.582031 200.292969 205.375 195.277344 197.265625 192.546875 Z M 91.484375 180.492188 C 101.621094 181.675781 111.328125 182.46875 121.171875 179.453125 C 121.40625 179.648438 121.664062 179.804688 122.03125 179.835938 C 127.613281 180.402344 132.539062 177.800781 137.171875 175 C 137.1875 175 137.195312 174.984375 137.214844 174.976562 C 141.011719 175 144.050781 177.601562 147.648438 178.53125 C 145.210938 186.496094 142.617188 194.433594 139.773438 202.261719 C 133.941406 218.261719 126.082031 233.128906 118.457031 248.296875 C 112.1875 260.75 107.292969 273.6875 106.734375 287.703125 C 106.597656 287.800781 106.457031 287.921875 106.34375 288.078125 C 104.441406 290.652344 101.816406 292.777344 99.695312 295.167969 C 97.945312 297.152344 95.050781 300.179688 95.78125 303.105469 C 96.597656 306.371094 101.613281 305.261719 103.46875 303.917969 C 105.382812 302.546875 106.582031 300.433594 107.488281 298.164062 C 108.589844 304.144531 111.058594 310.261719 116.003906 311.898438 C 126.007812 315.210938 132.214844 299.816406 135.390625 293.109375 C 141.507812 280.121094 145.089844 266.023438 148.160156 252.054688 C 149.019531 248.109375 149.894531 244.148438 150.742188 240.1875 C 152.492188 263.230469 163.148438 286.871094 183.03125 299.097656 C 183.046875 299.097656 184.027344 300.910156 184.285156 301.167969 C 185.175781 302.09375 186.230469 302.765625 187.542969 302.691406 C 190.5 302.53125 192.121094 299.566406 193.722656 297.53125 C 195.5 295.273438 197.921875 293.652344 199.996094 291.65625 C 204.652344 287.234375 208.558594 282.066406 211.726562 276.484375 C 218.078125 265.269531 221.496094 252.519531 222.597656 239.734375 C 223.472656 243.855469 224.347656 247.949219 225.222656 252.054688 C 228.238281 266.113281 232.101562 279.960938 237.992188 293.109375 C 241.023438 299.855469 247.464844 315.195312 257.378906 311.898438 C 262.507812 310.203125 264.816406 303.972656 265.855469 297.945312 C 266.722656 300.109375 267.839844 302.132812 269.597656 303.679688 C 271.40625 305.261719 276.753906 306.492188 277.601562 303.105469 C 278.292969 300.3125 275.691406 297.53125 274.054688 295.585938 C 271.859375 292.988281 269.054688 290.800781 267.039062 288.078125 C 266.933594 287.9375 266.804688 287.835938 266.691406 287.730469 C 266.691406 273.851562 260.945312 260.515625 254.925781 248.296875 C 247.414062 233.03125 239.574219 218.246094 233.609375 202.261719 C 230.699219 194.445312 228.101562 186.527344 225.695312 178.546875 C 229.300781 177.617188 232.335938 175 236.171875 174.976562 C 236.1875 174.984375 236.195312 175 236.210938 175 C 240.84375 177.800781 245.769531 180.402344 251.351562 179.835938 C 251.703125 179.804688 251.976562 179.648438 252.210938 179.453125 C 261.5625 182.308594 270.109375 181.34375 279.734375 180.671875 C 285.039062 180.289062 292.589844 179.570312 294.8125 173.847656 C 296.578125 169.304688 287.21875 169.183594 285.40625 169.214844 C 274.582031 169.433594 263.941406 174.632812 253.085938 175.761719 C 250.542969 171.628906 244.523438 169.109375 240.480469 167.328125 C 234.210938 164.570312 228.730469 165.980469 222.746094 168.46875 C 221.417969 163.835938 220.128906 159.207031 218.855469 154.574219 C 229.421875 152.546875 237.394531 143.734375 245.359375 136.894531 C 250.285156 144.007812 266.578125 141.042969 270.691406 134.515625 C 272.199219 132.132812 273.910156 127.34375 269.183594 127.796875 C 265.304688 128.160156 261.195312 130.835938 257.921875 132.933594 C 253.652344 132.546875 249.667969 130.480469 245.664062 129.09375 C 245.285156 128.980469 244.921875 129.035156 244.578125 129.214844 C 244.046875 128.671875 242.976562 128.671875 242.464844 129.253906 C 239.296875 132.894531 236.046875 136.238281 231.890625 138.765625 C 227.476562 141.457031 222.152344 141.183594 217.40625 142.875 C 217.261719 142.171875 217.113281 141.472656 216.945312 140.800781 C 215.113281 133.640625 211.402344 127.433594 206.070312 123.285156 C 207.984375 122.910156 209.796875 122.125 211.363281 120.691406 C 214.578125 117.742188 214.796875 112.824219 213.945312 108.847656 C 213.128906 104.925781 210.820312 101.175781 207.472656 98.914062 C 205.980469 97.886719 204.765625 98.023438 205.125 96.003906 C 205.382812 94.464844 207.828125 92.757812 208.835938 91.679688 C 210.089844 90.292969 211.144531 88.679688 212.277344 87.222656 C 214.253906 84.65625 217.164062 83.4375 219.859375 81.84375 C 222.476562 80.3125 223.660156 77.808594 226.238281 76.4375 C 232.839844 72.921875 241.242188 71.75 248.515625 70.597656 C 250.300781 70.324219 250.429688 68.054688 249.488281 66.945312 C 243.371094 59.699219 233.367188 65.398438 227.097656 69.488281 C 224.859375 70.945312 222.785156 72.582031 220.839844 74.367188 C 219.421875 75.085938 218.039062 75.839844 216.660156 76.691406 C 208.46875 81.753906 205.164062 90.894531 198.464844 96.90625 C 198.179688 96.90625 197.921875 96.898438 197.636719 96.847656 C 196.6875 94.441406 194.746094 92.609375 191.738281 92.53125 C 189.40625 92.464844 187.703125 93.605469 186.683594 95.261719 C 185.664062 93.679688 183.953125 92.601562 181.644531 92.53125 C 178.621094 92.457031 176.703125 94.386719 175.753906 96.847656 C 175.511719 96.878906 175.261719 96.90625 175.007812 96.90625 C 171.769531 93.867188 169.589844 90.027344 167.035156 86.242188 C 164.363281 82.257812 160.636719 79.378906 156.722656 76.691406 C 155.09375 75.582031 153.402344 74.601562 151.667969 73.710938 C 149.964844 72.21875 148.199219 70.800781 146.289062 69.488281 C 140.105469 65.265625 129.9375 59.78125 123.886719 66.945312 C 122.953125 68.054688 123.082031 70.324219 124.859375 70.597656 C 131.988281 71.722656 140.015625 73.054688 146.507812 76.398438 C 151.578125 79.007812 156.179688 80.871094 159.996094 85.382812 C 161.714844 87.425781 163.074219 89.644531 164.695312 91.753906 C 166.21875 93.703125 168.460938 95.496094 169.386719 97.8125 C 166.746094 98.996094 165.109375 99.261719 163.089844 101.585938 C 161.292969 103.644531 160.0625 106.207031 159.4375 108.847656 C 158.441406 112.945312 158.984375 117.566406 162.019531 120.691406 C 163.488281 122.199219 165.328125 123 167.28125 123.347656 C 162.371094 127.238281 158.878906 132.925781 156.804688 139.527344 C 156.457031 140.621094 156.164062 141.75 155.929688 142.898438 C 151.140625 141.191406 146.101562 141.207031 141.492188 138.800781 C 137.285156 136.605469 133.972656 132.789062 130.917969 129.273438 C 130.40625 128.671875 129.339844 128.671875 128.796875 129.230469 C 128.480469 129.035156 128.097656 128.980469 127.71875 129.09375 C 123.714844 130.480469 119.730469 132.546875 115.425781 132.949219 C 112.1875 130.835938 108.078125 128.160156 104.183594 127.796875 C 99.476562 127.34375 101.183594 132.132812 102.691406 134.515625 C 106.816406 141.042969 123.101562 144.007812 128.027344 136.894531 C 135.988281 143.734375 143.960938 152.546875 154.527344 154.574219 C 153.238281 159.207031 151.957031 163.835938 150.628906 168.453125 C 144.632812 165.972656 139.15625 164.578125 132.902344 167.328125 C 128.859375 169.109375 122.839844 171.628906 120.296875 175.761719 C 110.082031 174.707031 100.542969 170.511719 90.433594 169.472656 C 87.484375 169.171875 78.507812 168.144531 78.507812 173.433594 C 78.507812 178.765625 87.816406 180.070312 91.484375 180.492188 "/></g></g></svg>